<?xml version="1.0" standalone="no"?>
<!DOCTYPE svg PUBLIC "-//W3C//DTD SVG 20010904//EN"
 "http://www.w3.org/TR/2001/REC-SVG-20010904/DTD/svg10.dtd">
<svg version="1.0" xmlns="http://www.w3.org/2000/svg"
 width="700.000000pt" height="700.000000pt" viewBox="0 0 700.000000 700.000000"
 preserveAspectRatio="xMidYMid meet">

<g transform="translate(0.000000,700.000000) scale(0.100000,-0.100000)"
fill="#000000" stroke="none">
<path d="M1665 6576 c-203 -94 -198 -375 8 -461 l37 -15 0 -219 c0 -198 2
-219 18 -234 17 -15 74 -17 620 -17 l602 0 0 -62 0 -63 -135 -33 c-411 -99
-815 -336 -1179 -691 -204 -200 -371 -410 -450 -568 -43 -85 -45 -125 -11
-175 69 -101 541 -351 970 -513 355 -134 655 -209 968 -241 l57 -5 0 -65 0
-64 -509 0 -509 0 -26 54 c-46 94 -128 140 -237 134 -88 -5 -151 -42 -195
-116 -65 -108 -51 -219 39 -307 55 -53 105 -75 174 -75 94 0 188 62 228 149
l18 41 509 0 508 0 -2 -232 -3 -231 -34 -12 c-72 -24 -138 -102 -156 -183 l-7
-32 -728 0 -728 0 -11 33 c-54 161 -286 210 -410 86 -118 -117 -85 -325 63
-401 125 -64 280 -11 341 117 l26 55 732 0 732 -1 25 -40 c42 -69 133 -119
216 -119 47 0 116 27 158 62 79 65 110 201 67 293 -23 50 -84 109 -133 130
l-38 15 0 150 0 150 521 -2 521 -3 124 -325 c68 -178 124 -329 124 -335 0 -6
-9 -28 -20 -50 -27 -53 -27 -145 1 -205 90 -200 373 -197 459 6 l19 44 226 0
226 0 19 -44 c73 -172 302 -207 422 -66 41 47 58 98 58 171 0 67 -25 122 -76
171 -51 48 -100 68 -171 68 -103 0 -202 -66 -235 -157 l-12 -33 -231 0 -231 0
-12 33 c-35 96 -139 162 -246 154 -33 -2 -70 -7 -81 -11 -18 -6 -31 22 -150
334 -80 210 -136 345 -147 351 -9 5 -255 9 -562 9 l-546 0 0 149 0 148 108 7
c534 35 1016 164 1527 410 241 116 572 315 622 375 28 32 31 95 6 131 -47 69
-184 221 -323 360 -314 312 -638 550 -982 721 l-128 64 0 260 0 260 56 29 c95
50 139 130 132 241 -10 157 -162 264 -314 220 -104 -30 -184 -134 -184 -240 0
-96 77 -206 164 -235 l36 -12 0 -240 c0 -212 -2 -239 -15 -234 -227 87 -576
144 -807 133 l-118 -6 0 302 0 302 36 20 c101 54 121 191 42 280 -109 125
-318 47 -318 -119 0 -76 37 -138 103 -172 l27 -15 0 -189 0 -190 -565 0 -565
0 0 180 0 180 37 15 c59 25 96 59 128 116 24 44 29 66 29 119 0 80 -25 131
-88 187 -76 67 -172 81 -261 39z m160 -106 c50 -24 75 -65 75 -122 0 -80 -57
-138 -137 -138 -76 0 -133 60 -133 140 0 55 25 96 75 120 50 25 68 25 120 0z
m1233 -127 c59 -65 -40 -152 -105 -91 -37 35 -26 99 20 118 30 12 58 3 85 -27z
m1069 -113 c86 -52 82 -189 -6 -235 -40 -20 -106 -19 -142 2 -30 18 -69 84
-69 118 0 33 38 99 67 117 38 24 110 23 150 -2z m-557 -949 c110 -24 300 -82
377 -116 l53 -24 0 -205 0 -206 -108 0 -107 0 -12 63 c-29 150 -151 309 -291
379 -126 64 -254 81 -390 52 l-33 -7 3 39 c3 37 5 39 43 46 81 13 365 1 465
-21z m-620 -60 c0 -48 0 -49 -65 -96 -243 -179 -299 -525 -125 -773 82 -117
202 -197 340 -228 l70 -16 0 -294 0 -294 -35 0 c-52 0 -179 28 -253 56 -453
170 -728 593 -698 1073 7 110 25 212 52 294 19 56 45 75 219 162 124 61 240
106 365 140 127 35 130 35 130 -24z m362 -106 c132 -28 114 -34 -92 -34 -203
0 -217 5 -90 35 73 16 102 16 182 -1z m837 -39 c21 -11 34 -32 54 -88 137
-376 109 -695 -90 -1006 -52 -82 -198 -228 -289 -288 -142 -94 -307 -155 -466
-172 l-78 -8 0 298 0 298 28 5 c71 14 167 52 221 87 121 79 218 221 244 356
l12 62 147 0 c140 0 148 1 162 22 13 19 16 59 16 235 0 117 2 213 5 213 4 0
19 -7 34 -14z m-604 -86 c16 -16 26 -32 23 -35 -3 -3 -162 -4 -353 -3 l-348 3
27 33 28 32 297 0 297 0 29 -30z m83 -115 c7 -14 12 -30 12 -35 0 -6 -160 -10
-420 -10 -231 0 -420 2 -420 5 0 4 7 19 15 35 l16 30 393 0 393 0 11 -25z
m952 -64 c156 -110 338 -269 523 -454 97 -98 177 -184 177 -191 0 -7 -57 -47
-127 -88 -345 -203 -649 -335 -1026 -444 -10 -3 11 24 47 61 161 163 266 374
312 626 28 153 21 458 -13 544 -9 25 5 18 107 -54z m-2617 -83 c-12 -78 -8
-282 6 -368 32 -184 123 -396 238 -547 34 -46 64 -87 67 -92 7 -11 -100 30
-289 111 -161 69 -441 209 -533 268 l-63 40 37 57 c76 120 173 234 345 406 98
97 182 177 189 177 7 0 8 -16 3 -52z m1705 5 l3 -33 -450 0 c-438 0 -451 1
-451 19 0 54 -24 51 454 49 l441 -3 3 -32z m2 -118 l0 -35 -444 0 c-479 0
-456 -3 -456 51 0 18 13 19 450 19 l450 0 0 -35z m-37 -130 l-17 -35 -397 0
-397 0 -11 31 c-6 18 -11 34 -11 35 0 2 191 4 425 4 l425 0 -17 -35z m-93
-130 l-34 -35 -286 0 -286 0 -34 35 -34 35 354 0 354 0 -34 -35z m-152 -100
c-14 -8 -58 -20 -97 -27 -78 -13 -166 -4 -231 25 -33 15 -24 15 160 16 176 0
192 -1 168 -14z m-1423 -1039 c45 -19 75 -69 75 -126 0 -57 -27 -101 -75 -124
-93 -45 -195 21 -195 126 0 103 97 165 195 124z m1324 -774 c97 -52 91 -193
-9 -245 -96 -49 -216 41 -196 148 8 39 49 93 80 105 35 15 90 11 125 -8z
m-1948 -45 c94 -63 85 -193 -17 -242 -118 -56 -238 78 -176 194 37 68 129 91
193 48z m3510 -230 c94 -63 85 -193 -17 -242 -118 -56 -238 78 -176 194 37 68
129 91 193 48z m948 5 c66 -35 90 -125 51 -189 -53 -88 -172 -94 -231 -11 -84
118 52 269 180 200z"/>
</g>
</svg>
