<?xml version="1.0" encoding="utf-8"?>
<!-- Svg Vector Icons : http://www.onlinewebfonts.com/icon -->
<!DOCTYPE svg PUBLIC "-//W3C//DTD SVG 1.1//EN" "http://www.w3.org/Graphics/SVG/1.1/DTD/svg11.dtd">
<svg version="1.1" xmlns="http://www.w3.org/2000/svg" xmlns:xlink="http://www.w3.org/1999/xlink" x="0px" y="0px" viewBox="0 0 1000 1000" enable-background="new 0 0 1000 1000" xml:space="preserve">
<metadata> Svg Vector Icons : http://www.onlinewebfonts.com/icon </metadata>
<g><g transform="translate(0.000000,512.000000) scale(0.100000,-0.100000)"><path d="M4734.1,4995.9c-105.4-38.3-207-138-268.3-266.4c-49.8-101.6-65.2-172.5-107.3-492.5c-157.2-1224.6-398.6-2230.8-712.9-2949.4c-159.1-368-318.1-636.3-523.2-881.6l-97.7-116.9h1841.7h1841.7l-120.7,149.5c-302.8,369.9-584.5,964-780,1632.8c-197.4,686.1-304.7,1243.8-460,2397.5C5295.6,4859.8,5017.7,5099.4,4734.1,4995.9z"/><path d="M1215.5-90.4c-300.9-103.5-538.5-368-601.8-670.8c-61.3-291.3,17.2-569.2,222.3-791.5c122.7-132.2,226.1-197.4,391-249.1c113.1-34.5,245.3-36.4,3773.5-36.4c3528.2,0,3660.5,1.9,3773.5,36.4c159.1,49.8,262.5,115,379.5,235.7c208.9,222.3,295.1,515.5,233.8,804.9c-55.6,260.6-245.3,502.1-492.5,624.8l-145.7,70.9l-3717.9,3.8C1541.3-57.8,1305.5-59.7,1215.5-90.4z"/><path d="M2865.5-2198.5c23-17.2,111.2-88.2,195.5-153.3c532.8-417.8,1132.6-1282.1,1278.3-1841.7c69-266.4,184-423.5,389-523.2c115-57.5,143.7-63.2,300.9-63.2c147.6,0,187.8,7.7,281.7,51.7c220.4,103.5,341.1,262.5,417.8,548.1c24.9,88.2,101.6,279.8,174.4,425.4c293.2,594.1,755.1,1165.2,1190.1,1471.8c70.9,49.8,128.4,95.8,130.3,105.4c0,7.7-187.8,13.4-417.8,13.4h-419.7l-132.2-93.9c-166.7-116.9-414-373.7-538.5-559.6c-184-272.1-343.1-630.5-437-985.1c-61.3-233.8-80.5-274.1-147.6-308.6c-82.4-42.2-161-32.6-226.1,26.8c-46,42.2-70.9,97.8-124.6,289.4c-197.4,695.7-555.8,1249.5-1004.2,1554.3l-115,76.7h-417.8C2844.5-2166,2827.2-2166,2865.5-2198.5z"/><path d="M4233.9-2175.5c0-5.7,61.3-76.7,136.1-157.1c235.7-254.9,440.8-594.1,592.2-977.4c34.5-86.2,65.2-155.3,69-153.3c1.9,3.8,30.7,72.8,63.2,153.3c155.2,391,358.4,728.3,586.5,969.7c78.6,84.3,143.7,159.1,143.7,164.8c0,5.8-358.4,11.5-795.3,11.5C4592.3-2164,4233.9-2169.8,4233.9-2175.5z"/></g></g>
</svg>