<?xml version="1.0" standalone="no"?>
<!DOCTYPE svg PUBLIC "-//W3C//DTD SVG 20010904//EN"
 "http://www.w3.org/TR/2001/REC-SVG-20010904/DTD/svg10.dtd">
<svg version="1.0" xmlns="http://www.w3.org/2000/svg"
 width="271.000000pt" height="271.000000pt" viewBox="0 0 271.000000 271.000000"
 preserveAspectRatio="xMidYMid meet">

<g transform="translate(0.000000,271.000000) scale(0.100000,-0.100000)"
fill="#000000" stroke="none">
<path d="M1210 2704 c-460 -57 -858 -333 -1060 -734 -108 -215 -145 -371 -145
-615 0 -141 4 -188 23 -274 91 -409 344 -742 702 -925 222 -113 377 -151 625
-151 141 0 188 4 274 23 539 120 933 514 1053 1053 33 150 33 398 0 548 -91
406 -343 740 -695 922 -208 107 -365 148 -592 153 -82 3 -166 2 -185 0z m99
-628 c-2 -3 -174 -175 -381 -384 -208 -208 -378 -382 -378 -385 0 -4 176 -6
390 -5 l390 3 0 -353 0 -352 -197 2 -198 3 0 195 0 195 -388 -3 -387 -3 0 153
0 153 392 392 393 393 184 0 c101 0 182 -2 180 -4z m961 -186 l0 -189 -200
-203 -200 -202 0 -186 0 -185 -185 3 -184 3 -3 195 -3 194 188 188 187 187 0
185 0 185 -187 -188 -188 -187 0 195 0 195 388 0 387 0 0 -190z m-2 -964 c-2
-1 -86 0 -187 2 l-185 3 185 187 184 187 3 -189 c1 -104 1 -189 0 -190z"/>
</g>
</svg>
