<svg xmlns="http://www.w3.org/2000/svg" viewBox="0 0 188.54 136"><defs><style>.cls-1{fill:#244403;}.cls-2{fill:#b4ffb0;}.cls-3{fill:#5fd2ff;}</style></defs><g id="Calque_2" data-name="Calque 2"><g id="Calque_1-2" data-name="Calque 1"><path class="cls-1" d="M142.5.78C128.88-4.4,108,16.74,94.13,48.85,80.28,16.81,59.42-4.28,45.81.9,31.22,6.46,30.49,40.12,44.19,76.1c13.38,35.15,35.57,59.49,50.2,55.41C109,135,130.89,110.77,144.13,76,157.83,40,157.1,6.34,142.5.78Z"/><path class="cls-2" d="M44.15,76.1c13.32,35,35.38,59.28,50,55.46h0c14.63,3.82,36.68-20.47,50-55.46a154.74,154.74,0,0,0,8.7-32.79,64,64,0,0,0-117.4,0A155.28,155.28,0,0,0,44.15,76.1Z"/><path class="cls-3" d="M44.38,76c-13.32-35-13-67.8.46-74.68h0A69.63,69.63,0,0,0,94.38,131.46h0C79.75,135.26,57.7,111,44.38,76Z"/><path class="cls-3" d="M144.17,76c13.32-35,13-67.8-.47-74.68h0A69.63,69.63,0,0,1,94.16,131.46h0C108.79,135.26,130.85,111,144.17,76Z"/></g></g></svg>