<svg id="svg" version="1.1" xmlns="http://www.w3.org/2000/svg" xmlns:xlink="http://www.w3.org/1999/xlink" width="400" height="400" viewBox="0, 0, 400,400"><g id="svgg"><path id="path0" d="M213.426 94.120 C 191.228 96.709,152.276 113.427,106.859 139.857 C 102.268 142.529,102.290 142.506,103.724 143.209 C 107.478 145.049,109.079 144.841,117.960 141.361 L 125.387 138.450 126.756 138.810 C 129.952 139.650,130.920 139.487,137.770 136.953 L 143.943 134.669 145.293 135.332 C 148.023 136.673,149.539 136.434,157.731 133.373 L 164.652 130.787 176.829 130.794 C 184.208 130.798,188.864 130.884,188.647 131.011 C 188.450 131.126,184.075 132.831,178.925 134.800 C 140.543 149.472,117.965 158.348,116.379 159.390 C 115.902 159.702,113.298 161.605,110.592 163.618 C 73.959 190.863,51.398 201.757,39.005 198.183 C 32.252 196.237,29.216 203.663,35.391 207.024 C 47.621 213.680,77.520 201.054,110.007 175.514 C 111.500 174.340,112.759 173.380,112.805 173.380 C 112.881 173.380,112.180 179.095,110.405 192.940 C 109.195 202.384,110.636 200.695,96.528 209.208 L 92.708 211.512 86.688 221.606 L 80.667 231.699 74.702 235.894 L 68.737 240.089 68.879 240.936 C 69.271 243.281,69.568 243.613,72.135 244.579 C 73.980 245.274,75.104 245.335,76.158 244.798 C 78.613 243.546,83.951 239.232,86.238 236.650 C 87.121 235.654,87.898 234.786,87.965 234.722 C 88.254 234.449,93.917 228.047,96.974 224.537 C 98.804 222.436,100.469 220.537,100.674 220.316 C 100.914 220.059,104.692 218.929,111.230 217.161 L 121.412 214.408 129.244 206.452 C 136.495 199.087,137.431 198.040,141.845 192.361 C 152.119 179.146,153.667 177.340,155.530 176.406 C 159.253 174.538,172.914 170.787,193.519 165.975 C 207.471 162.717,207.496 162.708,218.931 157.319 C 221.258 156.222,223.287 155.324,223.440 155.324 C 223.592 155.324,228.721 156.785,234.836 158.571 L 245.956 161.819 269.360 157.080 L 292.764 152.340 299.681 154.294 C 307.835 156.597,306.646 156.453,308.093 155.310 C 309.999 153.802,310.027 152.863,308.283 148.784 L 307.813 147.683 305.700 147.026 C 304.539 146.664,300.956 145.714,297.740 144.914 L 291.892 143.460 273.694 144.978 L 255.496 146.496 251.247 143.792 C 248.910 142.305,246.997 141.015,246.994 140.926 C 246.982 140.386,254.768 136.745,258.868 135.374 C 265.281 133.230,268.617 133.048,272.605 134.626 C 276.617 136.212,276.369 136.227,279.247 134.227 C 280.595 133.290,281.750 132.367,281.814 132.176 C 282.035 131.511,283.065 125.568,283.222 124.049 L 283.380 122.519 280.290 120.080 C 277.475 117.860,277.163 117.539,276.793 116.484 C 275.742 113.485,274.623 112.594,267.715 109.250 L 263.671 107.292 262.667 104.167 C 262.031 102.188,261.537 101.019,261.321 100.977 C 260.415 100.803,257.709 104.002,255.589 107.755 C 254.942 108.900,254.331 109.963,254.232 110.117 C 254.132 110.270,247.749 111.912,240.046 113.766 C 232.344 115.620,225.052 117.377,223.843 117.670 C 221.213 118.309,221.283 118.403,222.464 115.836 C 226.568 106.926,228.370 101.447,227.783 99.668 C 226.752 96.545,218.841 93.488,213.426 94.120 M289.120 220.762 C 281.645 221.384,277.477 227.072,277.447 236.690 C 277.422 245.140,279.528 248.471,288.838 254.702 C 294.706 258.630,295.488 259.669,295.484 263.542 C 295.479 268.137,293.650 270.026,289.213 270.021 C 286.129 270.017,284.477 268.653,283.551 265.345 C 283.128 263.835,282.931 263.872,279.568 266.083 C 275.668 268.648,275.703 268.555,277.371 271.875 C 280.377 277.861,283.366 279.588,290.278 279.333 C 299.104 279.008,303.589 273.031,303.170 262.153 C 302.848 253.792,299.907 249.475,290.780 243.968 C 284.748 240.328,283.256 236.640,286.099 232.394 C 288.652 228.580,292.737 229.338,295.035 234.052 C 296.132 236.301,295.889 236.316,299.684 233.776 C 303.362 231.314,303.257 231.645,301.494 228.062 C 298.877 222.745,294.726 220.295,289.120 220.762 M114.177 221.708 C 113.947 221.863,113.899 227.706,113.946 250.130 L 114.005 278.356 117.708 278.356 L 121.412 278.356 121.533 266.435 C 121.600 259.878,121.678 254.488,121.707 254.456 C 121.919 254.223,128.449 254.440,128.647 254.688 C 128.774 254.847,130.142 259.873,131.687 265.856 C 133.232 271.840,134.604 277.127,134.736 277.604 L 134.975 278.472 138.883 278.472 C 142.420 278.472,142.798 278.434,142.869 278.067 C 142.946 277.668,142.464 275.721,138.646 260.995 C 136.137 251.320,136.189 252.244,138.039 250.274 C 141.095 247.019,142.017 244.214,142.007 238.194 C 141.991 229.418,139.095 224.096,133.275 222.154 C 131.728 221.637,114.867 221.244,114.177 221.708 M147.713 221.842 C 147.522 222.072,147.468 229.683,147.511 250.256 L 147.569 278.356 159.984 278.416 L 172.399 278.476 172.539 277.953 C 172.724 277.262,172.725 270.861,172.541 269.936 L 172.396 269.213 164.192 269.213 C 158.979 269.213,155.825 269.126,155.540 268.973 C 154.962 268.664,154.831 255.135,155.401 254.661 C 155.608 254.490,157.998 254.385,162.635 254.344 L 169.560 254.282 169.560 249.653 L 169.560 245.023 162.512 244.962 C 157.226 244.916,155.417 244.829,155.281 244.615 C 154.968 244.121,155.051 231.615,155.370 231.296 C 155.576 231.091,157.797 231.019,163.927 231.019 C 172.041 231.019,172.211 231.009,172.460 230.543 C 172.874 229.770,172.665 222.033,172.222 221.754 C 171.624 221.376,148.029 221.461,147.713 221.842 M178.037 221.842 C 177.846 222.072,177.792 229.683,177.835 250.256 L 177.894 278.356 181.511 278.420 C 185.851 278.496,185.413 279.130,185.288 272.962 C 185.066 262.013,184.982 241.813,185.160 242.130 C 185.267 242.321,188.406 250.498,192.134 260.301 C 195.863 270.104,199.028 278.202,199.167 278.295 C 199.722 278.666,205.496 278.498,205.647 278.106 C 205.904 277.435,205.807 222.460,205.547 221.976 C 205.198 221.324,198.746 221.285,198.429 221.933 C 198.320 222.156,198.290 230.437,198.363 240.336 C 198.436 250.235,198.443 258.333,198.380 258.333 C 198.316 258.333,195.192 250.146,191.438 240.140 C 187.067 228.493,184.470 221.872,184.219 221.738 C 183.562 221.386,178.342 221.474,178.037 221.842 M213.251 221.719 C 213.021 221.866,212.973 227.702,213.020 250.130 L 213.079 278.356 216.696 278.420 C 220.970 278.495,220.657 278.778,220.486 275.000 C 220.335 271.669,220.102 241.784,220.228 241.911 C 220.283 241.968,223.423 250.139,227.204 260.069 C 230.985 270.000,234.198 278.202,234.343 278.295 C 235.097 278.782,240.683 278.485,240.826 277.951 C 241.083 276.994,240.992 222.459,240.733 221.976 C 240.436 221.421,234.059 221.279,233.614 221.817 C 233.450 222.015,233.423 227.863,233.527 240.220 C 233.612 250.182,233.621 258.334,233.549 258.333 C 233.477 258.333,230.367 250.182,226.638 240.220 C 222.909 230.258,219.693 221.976,219.491 221.817 C 219.077 221.490,213.744 221.407,213.251 221.719 M248.437 221.719 C 248.206 221.866,248.158 227.702,248.205 250.130 L 248.264 278.356 260.648 278.356 L 273.032 278.356 273.032 273.843 L 273.032 269.329 264.719 269.268 C 259.001 269.226,256.308 269.126,256.093 268.947 C 255.840 268.738,255.792 267.328,255.842 261.601 L 255.903 254.514 262.995 254.453 L 270.087 254.392 270.225 253.874 C 270.522 252.766,270.385 245.439,270.062 245.171 C 269.855 244.999,267.465 244.894,262.828 244.853 L 255.903 244.792 255.903 237.963 L 255.903 231.134 264.468 231.019 L 273.032 230.903 273.095 226.406 C 273.144 222.963,273.089 221.865,272.864 221.722 C 272.482 221.479,248.818 221.477,248.437 221.719 M131.084 231.331 C 135.532 233.197,135.765 242.245,131.423 244.472 C 130.640 244.874,130.115 244.911,126.099 244.855 L 121.644 244.792 121.579 238.426 C 121.493 230.039,120.901 231.019,126.054 231.019 C 129.129 231.019,130.549 231.107,131.084 231.331 M116.417 286.869 C 114.742 287.998,113.995 289.888,114.189 292.504 C 114.382 295.101,115.029 296.057,118.228 298.471 C 120.220 299.975,120.644 301.130,119.800 302.761 C 119.013 304.284,116.204 303.831,116.204 302.182 C 116.204 301.561,115.705 301.610,114.811 302.318 C 113.373 303.456,114.194 305.798,116.313 306.607 C 123.152 309.219,125.213 298.805,118.690 294.600 C 117.007 293.515,116.641 293.040,116.625 291.923 C 116.592 289.546,118.758 288.745,119.869 290.723 L 120.388 291.645 121.433 290.908 C 124.257 288.918,119.300 284.926,116.417 286.869 M127.894 286.612 C 126.840 287.192,125.901 288.338,125.572 289.445 C 125.166 290.813,125.081 302.112,125.467 303.499 C 126.582 307.515,131.649 308.278,133.617 304.726 C 134.440 303.243,134.430 303.175,133.288 302.335 C 132.073 301.441,132.115 301.436,131.625 302.546 C 131.000 303.964,129.073 304.179,128.148 302.935 C 127.397 301.925,127.397 291.363,128.148 290.353 C 129.045 289.145,130.926 289.321,131.616 290.677 C 131.860 291.158,132.080 291.588,132.104 291.633 C 132.195 291.805,134.259 290.188,134.254 289.949 C 134.204 287.486,130.160 285.364,127.894 286.612 M152.403 286.663 C 150.243 287.639,149.884 289.076,149.884 296.759 L 149.884 303.125 150.491 304.419 C 152.105 307.860,156.738 307.911,158.449 304.507 L 159.144 303.125 159.144 296.644 L 159.144 290.162 158.537 288.868 C 157.491 286.638,154.688 285.630,152.403 286.663 M164.919 286.668 C 163.921 287.103,163.033 288.250,162.621 289.636 C 162.109 291.362,162.112 301.936,162.626 303.665 C 163.977 308.214,170.015 308.099,171.293 303.499 C 171.678 302.112,171.593 290.813,171.187 289.445 C 170.425 286.880,167.455 285.564,164.919 286.668 M192.824 286.510 C 191.898 286.858,191.089 287.692,190.537 288.868 L 189.931 290.162 189.931 296.644 L 189.931 303.125 190.537 304.419 C 192.135 307.826,196.811 307.882,198.495 304.514 L 199.190 303.125 199.190 296.759 C 199.190 289.030,198.822 287.585,196.620 286.665 C 195.863 286.349,193.509 286.252,192.824 286.510 M244.682 286.748 C 241.124 288.539,241.353 294.747,245.079 297.519 C 247.703 299.472,248.148 300.030,248.148 301.372 C 248.148 304.019,244.940 304.715,244.309 302.205 C 244.123 301.462,244.046 301.470,242.853 302.347 C 240.724 303.913,243.237 307.070,246.467 306.888 C 252.076 306.573,252.315 298.370,246.824 294.647 C 245.003 293.412,244.676 292.994,244.676 291.902 C 244.676 289.558,246.804 288.748,247.873 290.685 L 248.414 291.665 249.438 290.961 C 250.588 290.170,250.650 289.930,250.023 288.706 C 248.927 286.569,246.677 285.744,244.682 286.748 M285.600 286.817 C 284.341 287.481,283.528 289.007,283.387 290.968 C 283.142 294.394,283.861 295.893,286.767 298.018 C 289.457 299.986,290.058 301.635,288.636 303.148 C 287.722 304.120,285.433 303.600,285.413 302.416 C 285.411 302.297,285.318 302.054,285.206 301.878 C 284.874 301.353,282.819 302.933,283.004 303.571 C 284.312 308.112,290.214 308.123,291.465 303.588 C 292.506 299.809,291.231 296.868,287.468 294.373 C 285.538 293.094,285.123 291.460,286.387 290.115 C 287.315 289.127,288.364 289.479,289.165 291.048 L 289.500 291.703 290.525 290.914 C 291.693 290.015,291.719 289.747,290.784 288.219 C 289.683 286.419,287.480 285.823,285.600 286.817 M296.875 286.669 C 292.874 288.448,293.382 294.772,297.787 298.030 C 299.925 299.610,300.231 300.040,300.231 301.451 C 300.231 303.942,297.330 304.663,296.387 302.407 C 296.021 301.530,295.883 301.546,294.583 302.611 C 292.963 303.937,295.517 306.944,298.264 306.944 C 303.988 306.944,304.481 298.403,298.972 294.685 C 297.097 293.420,296.759 292.999,296.759 291.928 C 296.759 289.512,298.965 288.713,300.006 290.752 L 300.481 291.683 301.513 290.941 C 302.676 290.106,302.726 289.916,302.106 288.706 C 301.043 286.634,298.863 285.786,296.875 286.669 M137.037 296.528 L 137.037 306.481 138.194 306.481 L 139.352 306.481 139.352 302.315 L 139.352 298.148 141.661 298.148 L 143.971 298.148 144.034 302.257 L 144.097 306.366 145.313 306.436 L 146.528 306.506 146.528 296.540 L 146.528 286.574 145.395 286.574 C 143.957 286.574,143.955 286.578,143.983 290.497 C 143.995 292.223,143.999 293.924,143.993 294.279 L 143.981 294.924 141.725 294.858 L 139.468 294.792 139.404 290.683 L 139.341 286.574 138.189 286.574 L 137.037 286.574 137.037 296.528 M174.923 286.728 C 174.838 286.813,174.769 291.292,174.769 296.682 L 174.769 306.481 178.935 306.481 L 183.102 306.481 183.102 304.984 L 183.102 303.486 180.266 303.421 L 177.431 303.356 177.370 294.965 L 177.309 286.574 176.193 286.574 C 175.579 286.574,175.008 286.644,174.923 286.728 M202.546 296.489 C 202.546 301.943,202.595 306.453,202.654 306.512 C 202.714 306.572,203.261 306.563,203.870 306.493 L 204.977 306.366 205.040 302.257 L 205.103 298.148 207.413 298.148 L 209.722 298.148 209.722 296.528 L 209.722 294.907 207.422 294.907 L 205.122 294.907 205.050 292.457 C 204.962 289.501,204.622 289.815,207.909 289.815 L 210.648 289.815 210.648 288.194 L 210.648 286.574 206.597 286.574 L 202.546 286.574 202.546 296.489 M217.978 286.728 C 217.894 286.813,217.824 291.292,217.824 296.682 L 217.824 306.481 221.220 306.481 L 224.616 306.481 225.567 305.490 C 227.255 303.728,227.692 300.330,226.552 297.839 L 225.952 296.528 226.546 295.229 C 228.019 292.013,226.710 287.534,224.084 286.805 C 223.167 286.550,218.219 286.488,217.978 286.728 M230.187 286.893 C 230.115 287.082,230.090 290.812,230.132 295.181 L 230.208 303.125 230.903 304.514 C 231.745 306.199,232.953 306.944,234.838 306.944 C 236.723 306.944,237.931 306.199,238.773 304.514 L 239.468 303.125 239.468 294.907 L 239.468 286.690 238.252 286.620 L 237.037 286.550 237.037 294.166 C 237.037 302.015,236.935 303.031,236.102 303.477 C 235.265 303.925,233.916 303.746,233.316 303.107 L 232.755 302.510 232.639 294.600 L 232.523 286.690 231.421 286.619 C 230.612 286.567,230.284 286.640,230.187 286.893 M253.472 296.528 L 253.472 306.481 254.630 306.481 L 255.787 306.481 255.787 296.528 L 255.787 286.574 254.630 286.574 L 253.472 286.574 253.472 296.528 M259.373 287.095 C 259.303 287.381,259.275 291.834,259.311 296.991 L 259.375 306.366 260.587 306.436 L 261.798 306.505 261.860 300.260 L 261.921 294.015 264.120 300.245 L 266.319 306.476 267.421 306.479 L 268.523 306.481 268.463 296.586 L 268.403 286.690 267.307 286.619 L 266.211 286.549 266.149 293.089 L 266.088 299.629 263.801 293.101 L 261.515 286.574 260.507 286.574 C 259.654 286.574,259.480 286.654,259.373 287.095 M272.330 286.858 C 272.268 287.020,272.244 291.476,272.277 296.759 L 272.338 306.366 276.447 306.429 L 280.556 306.492 280.556 304.989 L 280.556 303.486 277.720 303.421 L 274.884 303.356 274.819 300.760 L 274.754 298.165 277.134 298.098 L 279.514 298.032 279.582 296.478 L 279.650 294.924 277.267 294.858 L 274.884 294.792 274.884 292.361 L 274.884 289.931 277.730 289.865 L 280.576 289.800 280.508 288.245 L 280.440 286.690 276.442 286.626 C 273.369 286.578,272.417 286.631,272.330 286.858 M156.006 290.033 C 157.013 291.040,157.038 302.041,156.036 303.107 C 155.009 304.200,153.082 303.838,152.555 302.454 C 152.155 301.400,152.240 291.325,152.657 290.519 C 153.203 289.463,155.153 289.181,156.006 290.033 M168.562 290.287 C 169.230 291.185,169.230 302.102,168.562 303.000 C 167.912 303.874,166.201 303.954,165.396 303.148 L 164.815 302.567 164.815 296.644 L 164.815 290.720 165.396 290.139 C 166.201 289.333,167.912 289.413,168.562 290.287 M195.824 289.810 C 197.215 290.554,197.215 302.733,195.824 303.477 C 194.987 303.925,193.639 303.746,193.038 303.107 C 192.472 302.504,192.040 293.593,192.466 291.302 C 192.741 289.826,194.442 289.070,195.824 289.810 M223.624 290.053 C 226.000 291.325,224.763 294.982,221.999 294.859 L 220.486 294.792 220.419 292.610 C 220.382 291.410,220.405 290.290,220.470 290.122 C 220.613 289.748,222.959 289.697,223.624 290.053 M223.716 298.292 C 224.750 298.689,225.107 301.178,224.316 302.476 C 223.821 303.287,222.987 303.560,221.402 303.431 L 220.486 303.356 220.421 300.752 L 220.355 298.148 221.848 298.148 C 222.670 298.148,223.510 298.213,223.716 298.292 " stroke="none" fill="#fafbfb" fill-rule="evenodd"></path><path id="path1" d="M187.500 0.258 C 62.016 8.557,-24.756 127.901,6.170 249.653 C 31.173 348.087,127.282 412.447,227.894 398.130 C 346.070 381.314,423.231 266.094,393.830 150.347 C 370.298 57.703,282.674 -6.037,187.500 0.258 M219.961 94.528 C 224.855 95.899,228.009 98.266,228.009 100.569 C 228.009 102.700,226.153 108.025,223.032 114.850 C 222.226 116.613,221.591 118.056,221.621 118.056 C 221.651 118.056,228.960 116.299,237.863 114.152 L 254.051 110.249 255.219 108.186 C 257.776 103.671,260.268 100.694,261.491 100.694 C 261.606 100.694,262.150 102.130,262.699 103.885 L 263.698 107.076 268.697 109.587 C 275.035 112.771,275.928 113.571,277.155 117.170 C 277.228 117.384,278.657 118.634,280.332 119.948 L 283.377 122.338 283.239 124.421 C 283.110 126.367,282.135 131.912,281.836 132.395 C 281.763 132.514,280.593 133.403,279.236 134.370 C 276.376 136.410,276.769 136.384,272.723 134.814 C 267.021 132.602,259.479 134.203,248.893 139.874 L 246.977 140.900 251.208 143.628 L 255.440 146.355 273.677 144.839 L 291.914 143.323 298.214 144.905 C 308.614 147.516,308.010 147.192,309.147 150.764 C 310.067 153.652,309.970 153.994,307.748 155.716 L 306.816 156.439 299.878 154.463 L 292.940 152.487 286.921 153.682 C 283.611 154.339,273.038 156.470,263.425 158.416 C 251.893 160.750,245.750 161.898,245.369 161.790 C 245.052 161.700,239.974 160.215,234.086 158.491 L 223.381 155.355 218.808 157.517 C 208.021 162.616,207.070 162.942,194.097 165.981 C 172.652 171.005,160.195 174.375,156.134 176.252 C 153.804 177.328,153.137 178.066,144.713 188.889 C 141.888 192.517,139.002 196.215,138.300 197.106 C 137.597 197.998,133.509 202.290,129.217 206.645 L 121.412 214.563 111.257 217.288 L 101.102 220.014 98.178 223.356 C 94.189 227.917,85.940 237.147,84.696 238.442 C 83.519 239.667,79.271 243.012,77.083 244.434 C 74.378 246.194,69.768 244.813,69.005 242.014 C 68.463 240.024,68.210 240.303,74.655 235.773 L 80.561 231.623 83.882 226.055 C 85.710 222.992,88.418 218.448,89.902 215.957 L 92.600 211.428 96.011 209.372 C 108.644 201.754,108.790 201.648,109.261 199.787 C 109.539 198.685,112.774 173.808,112.654 173.688 C 112.617 173.651,111.057 174.811,109.188 176.266 C 76.478 201.724,48.046 213.619,35.367 207.150 C 28.706 203.753,32.232 196.203,39.568 198.154 C 51.750 201.393,74.295 190.433,109.934 163.946 C 113.425 161.352,116.654 159.040,117.110 158.809 C 119.216 157.741,152.850 144.574,174.537 136.328 C 176.128 135.723,179.878 134.284,182.870 133.131 L 188.310 131.035 176.369 131.027 L 164.427 131.019 159.471 132.848 C 156.744 133.854,153.681 134.985,152.662 135.363 C 149.448 136.553,147.219 136.535,144.974 135.301 L 143.998 134.764 137.814 137.058 C 130.934 139.610,130.360 139.712,127.032 138.983 L 125.347 138.613 122.917 139.540 C 121.580 140.050,118.214 141.362,115.437 142.456 C 109.688 144.720,108.778 144.859,105.551 143.965 C 101.447 142.827,101.455 142.803,106.944 139.645 C 161.456 108.284,205.830 90.569,219.961 94.528 M293.747 220.963 C 297.712 221.897,302.258 226.938,302.719 230.911 L 302.827 231.846 299.611 233.978 C 295.763 236.531,296.107 236.494,295.126 234.452 C 293.418 230.896,292.566 230.228,289.913 230.362 C 286.865 230.516,285.071 232.811,285.070 236.557 C 285.069 239.773,285.906 240.831,290.856 243.873 C 299.807 249.375,302.412 252.955,303.278 260.943 C 304.428 271.544,299.309 279.085,290.645 279.555 C 283.260 279.956,278.622 276.836,276.474 270.023 C 275.949 268.358,275.948 268.358,279.522 265.967 C 283.116 263.561,283.110 263.562,283.785 265.592 C 284.864 268.832,286.273 269.907,289.443 269.907 C 292.937 269.907,294.539 268.602,295.368 265.080 C 296.255 261.312,294.845 258.841,289.969 255.617 C 279.650 248.796,277.192 245.122,277.225 236.574 C 277.269 225.251,284.191 218.710,293.747 220.963 M132.710 221.873 C 142.642 224.460,145.903 241.749,138.094 250.413 C 136.258 252.449,135.986 250.164,139.849 265.138 C 142.273 274.537,143.066 277.942,142.892 278.217 C 142.571 278.727,135.402 278.897,134.994 278.404 C 134.852 278.234,133.432 273.049,131.839 266.883 C 130.245 260.716,128.838 255.437,128.712 255.150 C 128.489 254.645,128.384 254.630,125.127 254.630 L 121.772 254.630 121.708 266.444 C 121.652 276.646,121.596 278.288,121.296 278.477 C 120.844 278.763,114.573 278.763,114.120 278.477 C 113.685 278.202,113.464 222.785,113.894 221.981 C 114.222 221.369,130.420 221.277,132.710 221.873 M172.545 221.894 C 172.952 222.956,172.689 230.769,172.237 231.010 C 171.953 231.163,168.788 231.250,163.553 231.250 L 155.317 231.250 155.378 238.021 L 155.440 244.792 162.384 244.851 C 170.777 244.923,169.907 244.363,169.907 249.697 C 169.907 255.149,170.724 254.630,162.149 254.630 L 155.317 254.630 155.379 261.748 L 155.440 268.866 163.753 268.927 C 169.418 268.968,172.165 269.069,172.376 269.244 C 172.829 269.621,172.824 278.069,172.370 278.446 C 172.142 278.635,168.660 278.691,159.812 278.648 L 147.569 278.588 147.510 250.347 C 147.477 234.815,147.500 221.976,147.560 221.817 C 147.747 221.327,172.356 221.402,172.545 221.894 M184.430 221.717 C 184.587 221.817,187.788 230.070,191.544 240.058 L 198.372 258.218 198.318 239.931 L 198.264 221.644 201.968 221.644 L 205.671 221.644 205.730 249.986 C 205.777 272.507,205.729 278.366,205.499 278.512 C 204.865 278.915,199.404 278.734,199.029 278.299 C 198.837 278.076,195.679 269.977,192.010 260.301 C 188.341 250.625,185.278 242.635,185.204 242.546 C 185.130 242.457,185.157 250.403,185.264 260.205 C 185.415 274.068,185.396 278.102,185.178 278.365 C 184.849 278.762,178.613 278.859,178.009 278.477 C 177.587 278.210,177.353 223.225,177.769 222.129 L 177.998 221.528 181.071 221.531 C 182.761 221.533,184.272 221.617,184.430 221.717 M219.718 221.933 C 219.908 222.156,222.892 229.890,226.348 239.120 C 229.804 248.351,232.835 256.424,233.083 257.060 L 233.534 258.218 233.492 239.931 L 233.449 221.644 237.153 221.644 L 240.856 221.644 240.915 249.859 C 240.958 270.519,240.904 278.159,240.713 278.390 C 240.281 278.910,234.674 278.832,234.210 278.299 C 234.016 278.076,230.865 270.029,227.208 260.417 C 223.551 250.804,220.503 242.888,220.434 242.824 C 220.364 242.760,220.380 250.660,220.467 260.378 C 220.589 273.789,220.561 278.126,220.355 278.375 C 220.034 278.762,213.786 278.851,213.194 278.477 C 212.760 278.202,212.538 222.785,212.968 221.981 C 213.318 221.328,219.167 221.287,219.718 221.933 M273.102 221.806 C 273.567 222.271,273.485 230.417,273.010 230.892 C 272.686 231.216,271.663 231.260,264.619 231.250 C 260.207 231.244,256.465 231.241,256.304 231.244 C 256.074 231.249,256.025 232.685,256.073 238.021 L 256.134 244.792 263.194 244.907 L 270.255 245.023 270.318 249.536 C 270.397 255.222,271.162 254.647,263.546 254.629 C 260.233 254.622,257.185 254.619,256.771 254.623 L 256.019 254.630 256.019 261.806 L 256.019 268.981 264.459 268.981 C 274.496 268.981,273.380 268.373,273.380 273.843 C 273.380 276.134,273.278 277.997,273.140 278.256 C 272.908 278.690,272.525 278.704,260.648 278.704 C 248.772 278.704,248.389 278.690,248.156 278.256 C 247.788 277.568,247.826 222.174,248.194 221.806 C 248.595 221.405,272.701 221.405,273.102 221.806 M121.814 238.008 L 121.875 244.792 125.764 244.855 C 130.213 244.928,131.135 244.756,132.393 243.620 C 135.291 241.001,135.126 234.526,132.097 232.083 L 131.208 231.366 126.480 231.295 L 121.752 231.223 121.814 238.008 M120.410 286.714 C 121.112 287.073,121.845 288.020,122.341 289.209 C 122.729 290.137,122.629 290.309,121.175 291.207 C 120.251 291.778,120.251 291.778,119.714 290.701 C 118.918 289.108,116.995 289.684,116.741 291.591 C 116.598 292.662,117.099 293.397,118.710 294.479 C 121.878 296.607,122.569 297.823,122.569 301.273 C 122.569 304.241,122.137 305.387,120.655 306.345 C 118.225 307.916,115.530 307.166,114.197 304.548 C 113.510 303.197,113.560 303.026,114.915 302.094 L 115.972 301.367 116.248 302.014 C 117.294 304.464,120.023 303.907,120.023 301.244 C 120.023 300.102,119.540 299.486,117.593 298.147 C 111.412 293.895,113.991 283.429,120.410 286.714 M132.178 286.691 C 132.915 287.072,133.643 288.003,134.147 289.209 C 134.535 290.137,134.435 290.309,132.980 291.207 C 132.057 291.778,132.057 291.778,131.519 290.701 C 130.914 289.489,128.591 289.442,128.049 290.630 C 127.503 291.828,127.686 302.136,128.266 302.874 C 129.331 304.227,131.358 303.496,132.016 301.522 C 132.059 301.394,132.626 301.680,133.277 302.158 C 134.613 303.139,134.623 303.487,133.369 305.397 C 131.473 308.283,126.721 307.495,125.536 304.098 C 124.854 302.143,124.913 290.375,125.612 288.889 C 126.775 286.416,129.732 285.426,132.178 286.691 M157.190 286.903 C 159.012 288.109,159.144 288.763,159.144 296.644 C 159.144 303.318,159.124 303.624,158.644 304.514 C 156.603 308.297,151.313 307.896,150.117 303.868 C 149.608 302.153,149.614 291.113,150.125 289.392 C 151.002 286.440,154.583 285.178,157.190 286.903 M168.338 286.353 C 171.133 287.129,171.598 288.441,171.710 295.866 C 171.848 305.083,171.012 307.020,166.885 307.035 C 164.535 307.043,163.165 305.987,162.442 303.611 C 161.857 301.689,162.051 290.391,162.693 288.970 C 163.765 286.598,165.809 285.650,168.338 286.353 M197.219 286.892 C 199.021 288.084,199.180 288.805,199.261 296.133 C 199.346 303.757,199.226 304.467,197.606 305.960 C 195.355 308.035,191.961 307.351,190.430 304.514 C 189.950 303.624,189.931 303.318,189.931 296.644 L 189.931 289.699 190.602 288.488 C 191.913 286.121,194.948 285.389,197.219 286.892 M248.798 286.964 C 249.219 287.283,249.841 288.110,250.181 288.803 L 250.798 290.062 250.110 290.618 C 249.099 291.436,248.318 291.823,248.225 291.551 C 247.363 289.018,244.844 289.280,244.844 291.902 C 244.844 293.032,244.999 293.219,247.198 294.760 C 250.399 297.004,251.616 300.364,250.479 303.819 C 248.996 308.325,243.123 308.148,241.795 303.557 C 241.673 303.135,243.885 301.060,244.062 301.431 C 245.136 303.682,246.571 304.257,247.659 302.874 C 248.819 301.399,248.218 300.037,245.486 297.954 C 242.770 295.883,242.130 294.729,242.130 291.910 C 242.130 287.314,245.733 284.641,248.798 286.964 M288.510 286.330 C 289.867 286.644,291.667 288.681,291.667 289.901 C 291.667 290.216,289.929 291.667,289.553 291.667 C 289.458 291.667,289.147 291.250,288.861 290.741 C 287.872 288.981,285.880 289.644,285.880 291.733 C 285.880 292.965,286.164 293.390,287.609 294.314 C 290.528 296.181,291.636 297.856,291.844 300.712 C 292.291 306.869,286.057 309.701,283.328 304.581 C 282.660 303.327,282.750 302.980,283.963 302.141 L 285.051 301.389 285.467 302.244 C 286.518 304.405,289.120 303.801,289.120 301.397 C 289.120 300.072,288.803 299.615,286.970 298.307 C 284.941 296.859,283.889 295.624,283.462 294.185 C 282.297 290.262,284.184 286.392,287.384 286.140 C 287.512 286.130,288.018 286.215,288.510 286.330 M300.464 286.693 C 301.530 287.239,303.116 289.852,302.626 290.257 C 300.713 291.842,300.467 291.890,299.884 290.798 C 299.006 289.153,297.148 289.592,296.836 291.518 C 296.657 292.616,297.093 293.256,298.813 294.425 C 302.682 297.052,303.972 300.969,302.161 304.590 C 300.538 307.835,296.235 308.031,294.507 304.938 C 293.668 303.437,293.724 303.095,294.961 302.169 L 296.057 301.350 296.337 302.006 C 297.299 304.259,299.845 304.031,300.163 301.662 C 300.333 300.390,299.839 299.656,297.881 298.271 C 294.916 296.175,294.099 294.645,294.259 291.486 C 294.477 287.197,297.253 285.052,300.464 286.693 M139.583 290.625 L 139.583 294.676 141.782 294.676 L 143.981 294.676 143.981 290.613 L 143.981 286.551 145.313 286.620 L 146.644 286.690 146.644 296.644 L 146.644 306.597 145.313 306.667 L 143.981 306.736 143.981 302.442 L 143.981 298.148 141.782 298.148 L 139.583 298.148 139.583 302.431 L 139.583 306.713 138.194 306.713 L 136.806 306.713 136.806 296.644 L 136.806 286.574 138.194 286.574 L 139.583 286.574 139.583 290.625 M177.491 294.965 L 177.552 303.241 180.327 303.241 L 183.102 303.241 183.102 304.977 L 183.102 306.713 178.935 306.713 L 174.769 306.713 174.769 296.632 L 174.769 286.551 176.100 286.620 L 177.431 286.690 177.491 294.965 M210.832 288.252 L 210.764 289.931 207.928 289.996 L 205.093 290.061 205.093 292.360 L 205.093 294.660 207.465 294.726 L 209.838 294.792 209.906 296.470 L 209.974 298.148 207.533 298.148 L 205.093 298.148 205.093 302.442 L 205.093 306.736 203.762 306.667 L 202.431 306.597 202.370 296.875 C 202.337 291.528,202.360 287.023,202.421 286.863 C 202.504 286.647,203.582 286.574,206.716 286.574 L 210.900 286.574 210.832 288.252 M225.018 287.100 C 227.209 288.577,227.985 292.314,226.698 295.183 L 226.080 296.559 226.610 297.643 C 227.669 299.808,227.445 303.278,226.130 305.093 C 225.121 306.487,224.383 306.713,220.841 306.713 L 217.824 306.713 217.824 296.644 L 217.824 286.574 221.031 286.574 C 223.982 286.574,224.299 286.616,225.018 287.100 M232.870 294.699 C 233.002 303.836,232.921 303.472,234.838 303.472 C 236.755 303.472,236.674 303.836,236.806 294.699 L 236.921 286.690 238.263 286.620 L 239.605 286.550 239.536 295.069 C 239.470 303.288,239.450 303.621,238.968 304.514 C 237.075 308.023,232.588 308.035,230.716 304.536 C 230.224 303.617,230.206 303.323,230.137 295.069 L 230.066 286.550 231.410 286.620 L 232.755 286.690 232.870 294.699 M256.019 296.644 L 256.019 306.713 254.630 306.713 L 253.241 306.713 253.241 296.644 L 253.241 286.574 254.630 286.574 L 256.019 286.574 256.019 296.644 M263.765 292.629 L 265.856 298.569 265.918 292.560 L 265.980 286.551 267.307 286.621 L 268.634 286.690 268.634 296.644 L 268.634 306.597 267.549 306.667 C 266.215 306.753,266.517 307.303,264.009 300.231 C 262.902 297.112,261.942 294.508,261.876 294.444 C 261.810 294.381,261.793 297.089,261.838 300.463 L 261.921 306.597 260.590 306.667 L 259.259 306.736 259.259 296.643 L 259.259 286.550 260.466 286.620 L 261.673 286.690 263.765 292.629 M280.556 288.310 L 280.556 290.046 277.778 290.046 L 275.000 290.046 275.000 292.361 L 275.000 294.676 277.315 294.676 L 279.630 294.676 279.630 296.412 L 279.630 298.148 277.315 298.148 L 275.000 298.148 275.000 300.694 L 275.000 303.241 277.778 303.241 L 280.556 303.241 280.556 304.977 L 280.556 306.713 276.389 306.713 L 272.222 306.713 272.222 296.644 L 272.222 286.574 276.389 286.574 L 280.556 286.574 280.556 288.310 M194.042 289.771 C 192.657 289.905,192.593 290.203,192.593 296.475 C 192.593 303.338,192.630 303.472,194.553 303.472 C 196.538 303.472,196.528 303.509,196.528 296.644 C 196.528 289.651,196.486 289.536,194.042 289.771 M152.907 290.329 C 152.604 290.762,152.546 291.769,152.546 296.644 C 152.546 303.509,152.536 303.472,154.521 303.472 C 156.444 303.472,156.481 303.338,156.481 296.475 C 156.481 289.802,156.485 289.815,154.514 289.815 C 153.488 289.815,153.203 289.906,152.907 290.329 M165.372 290.302 C 164.668 291.078,164.581 301.608,165.269 302.720 C 165.860 303.677,167.661 303.828,168.425 302.985 C 168.868 302.496,169.247 292.523,168.878 291.053 C 168.552 289.756,166.303 289.274,165.372 290.302 M220.602 292.361 L 220.602 294.676 222.049 294.672 C 224.063 294.667,224.537 294.214,224.537 292.292 C 224.537 290.612,223.921 290.046,222.090 290.046 L 220.602 290.046 220.602 292.361 M220.602 300.667 L 220.602 303.241 222.090 303.241 C 224.023 303.241,224.537 302.705,224.537 300.689 C 224.537 298.761,224.111 298.318,222.137 298.192 L 220.602 298.094 220.602 300.667 " stroke="none" fill="#1c3b7b" fill-rule="evenodd"></path><path id="path2" d="M259.360 102.141 L 258.681 102.894 259.433 102.214 C 259.847 101.840,260.185 101.501,260.185 101.461 C 260.185 101.282,259.994 101.440,259.360 102.141 M164.618 130.899 C 164.772 131.053,188.457 131.065,188.611 130.911 C 188.679 130.843,183.283 130.787,176.620 130.787 C 169.958 130.787,164.556 130.837,164.618 130.899 M267.419 133.731 C 267.769 133.784,268.342 133.784,268.692 133.731 C 269.042 133.678,268.756 133.634,268.056 133.634 C 267.355 133.634,267.069 133.678,267.419 133.731 M148.324 136.275 C 148.612 136.330,149.029 136.328,149.250 136.270 C 149.472 136.212,149.236 136.167,148.727 136.169 C 148.218 136.172,148.037 136.219,148.324 136.275 M136.675 198.900 L 135.995 199.653 136.748 198.973 C 137.161 198.599,137.500 198.260,137.500 198.221 C 137.500 198.042,137.309 198.199,136.675 198.900 M43.345 198.777 C 43.695 198.830,44.268 198.830,44.618 198.777 C 44.968 198.724,44.682 198.680,43.981 198.680 C 43.281 198.680,42.995 198.724,43.345 198.777 M125.110 210.706 L 123.495 212.384 125.174 210.770 C 126.732 209.271,126.958 209.028,126.788 209.028 C 126.753 209.028,125.997 209.783,125.110 210.706 M248.029 250.000 C 248.029 265.469,248.056 271.797,248.090 264.062 C 248.124 256.328,248.124 243.672,248.090 235.937 C 248.056 228.203,248.029 234.531,248.029 250.000 M113.769 250.000 C 113.769 265.341,113.797 271.617,113.831 263.947 C 113.865 256.276,113.865 243.724,113.831 236.053 C 113.797 228.383,113.769 234.659,113.769 250.000 M212.844 250.000 C 212.844 265.341,212.871 271.617,212.905 263.947 C 212.939 256.276,212.939 243.724,212.905 236.053 C 212.871 228.383,212.844 234.659,212.844 250.000 M177.658 250.116 C 177.658 265.394,177.686 271.678,177.720 264.080 C 177.754 256.483,177.754 243.983,177.720 236.303 C 177.686 228.622,177.658 234.838,177.658 250.116 M123.889 231.191 C 124.996 231.233,126.871 231.233,128.055 231.191 C 129.240 231.149,128.333 231.114,126.042 231.114 C 123.750 231.114,122.781 231.148,123.889 231.191 M159.679 231.192 C 162.011 231.230,165.761 231.230,168.013 231.192 C 170.264 231.154,168.356 231.123,163.773 231.123 C 159.190 231.123,157.348 231.154,159.679 231.192 M260.575 231.192 C 262.763 231.230,266.409 231.230,268.677 231.192 C 270.945 231.154,269.155 231.123,264.699 231.123 C 260.243 231.123,258.387 231.154,260.575 231.192 M121.630 237.963 C 121.630 241.591,121.662 243.076,121.701 241.262 C 121.740 239.447,121.740 236.479,121.701 234.664 C 121.662 232.850,121.630 234.334,121.630 237.963 M255.889 237.963 C 255.889 241.591,255.921 243.076,255.960 241.262 C 255.999 239.447,255.999 236.479,255.960 234.664 C 255.921 232.850,255.889 234.334,255.889 237.963 M277.163 236.690 C 277.164 237.708,277.204 238.096,277.253 237.552 C 277.302 237.007,277.301 236.174,277.252 235.700 C 277.202 235.226,277.162 235.671,277.163 236.690 M198.243 239.583 C 198.243 241.811,198.278 242.723,198.321 241.609 C 198.363 240.495,198.363 238.672,198.321 237.558 C 198.278 236.444,198.243 237.355,198.243 239.583 M233.429 243.056 C 233.429 245.284,233.463 246.195,233.506 245.081 C 233.548 243.967,233.548 242.144,233.506 241.030 C 233.463 239.916,233.429 240.828,233.429 243.056 M220.139 244.444 C 220.139 245.760,220.185 246.790,220.242 246.733 C 220.406 246.569,220.447 242.360,220.285 242.199 C 220.205 242.118,220.139 243.129,220.139 244.444 M185.023 243.750 C 185.023 244.450,185.066 244.737,185.120 244.387 C 185.173 244.036,185.173 243.464,185.120 243.113 C 185.066 242.763,185.023 243.050,185.023 243.750 M169.772 249.653 C 169.772 251.944,169.806 252.851,169.849 251.667 C 169.891 250.482,169.890 248.607,169.848 247.500 C 169.806 246.392,169.771 247.361,169.772 249.653 M138.064 250.289 L 137.384 251.042 138.137 250.362 C 138.838 249.728,138.995 249.537,138.816 249.537 C 138.777 249.537,138.438 249.876,138.064 250.289 M123.032 254.553 C 125.844 254.722,128.652 254.731,128.553 254.572 C 128.494 254.476,126.967 254.417,125.160 254.441 C 123.353 254.465,122.396 254.515,123.032 254.553 M158.854 254.571 C 160.732 254.610,163.805 254.610,165.683 254.571 C 167.561 254.532,166.024 254.501,162.269 254.501 C 158.513 254.501,156.976 254.532,158.854 254.571 M260.590 254.571 C 262.277 254.611,265.038 254.611,266.725 254.571 C 268.411 254.532,267.031 254.499,263.657 254.499 C 260.284 254.499,258.903 254.532,260.590 254.571 M121.635 266.319 C 121.635 272.685,121.665 275.256,121.701 272.032 C 121.738 268.809,121.738 263.601,121.701 260.458 C 121.665 257.316,121.635 259.954,121.635 266.319 M255.890 261.690 C 255.889 265.509,255.921 267.104,255.960 265.234 C 255.999 263.364,255.999 260.239,255.960 258.290 C 255.921 256.340,255.890 257.870,255.890 261.690 M303.299 262.384 C 303.302 262.894,303.349 263.075,303.404 262.787 C 303.460 262.499,303.458 262.082,303.400 261.861 C 303.342 261.639,303.297 261.875,303.299 262.384 M185.275 265.625 C 185.276 267.280,185.312 267.927,185.357 267.062 C 185.402 266.197,185.401 264.843,185.356 264.053 C 185.311 263.262,185.275 263.970,185.275 265.625 M303.299 264.468 C 303.302 264.977,303.349 265.158,303.404 264.870 C 303.460 264.582,303.458 264.165,303.400 263.944 C 303.342 263.723,303.297 263.958,303.299 264.468 M220.460 267.014 C 220.461 268.669,220.498 269.316,220.542 268.451 C 220.587 267.586,220.587 266.232,220.542 265.442 C 220.496 264.651,220.460 265.359,220.460 267.014 M288.376 279.569 C 289.048 279.616,290.090 279.615,290.691 279.568 C 291.291 279.520,290.741 279.482,289.468 279.483 C 288.194 279.483,287.703 279.522,288.376 279.569 M129.343 286.275 C 129.631 286.330,130.048 286.328,130.269 286.270 C 130.490 286.212,130.255 286.167,129.745 286.169 C 129.236 286.172,129.055 286.219,129.343 286.275 M153.877 286.274 C 154.164 286.330,154.633 286.330,154.919 286.274 C 155.205 286.219,154.971 286.174,154.398 286.174 C 153.825 286.174,153.591 286.219,153.877 286.274 M166.377 286.274 C 166.664 286.330,167.133 286.330,167.419 286.274 C 167.705 286.219,167.471 286.174,166.898 286.174 C 166.325 286.174,166.091 286.219,166.377 286.274 M194.155 286.274 C 194.442 286.330,194.910 286.330,195.197 286.274 C 195.483 286.219,195.249 286.174,194.676 286.174 C 194.103 286.174,193.869 286.219,194.155 286.274 M146.634 296.644 C 146.634 302.118,146.664 304.325,146.701 301.547 C 146.738 298.769,146.738 294.290,146.701 291.593 C 146.664 288.896,146.634 291.169,146.634 296.644 M177.419 295.023 C 177.419 299.606,177.450 301.514,177.488 299.263 C 177.526 297.011,177.526 293.261,177.488 290.929 C 177.450 288.598,177.419 290.440,177.419 295.023 M232.742 294.329 C 232.742 298.530,232.774 300.282,232.812 298.221 C 232.850 296.160,232.850 292.722,232.812 290.582 C 232.774 288.441,232.743 290.127,232.742 294.329 M236.909 294.329 C 236.909 298.530,236.940 300.282,236.979 298.221 C 237.017 296.160,237.017 292.722,236.979 290.582 C 236.941 288.441,236.909 290.127,236.909 294.329 M268.625 296.644 C 268.625 302.118,268.655 304.325,268.692 301.547 C 268.729 298.769,268.729 294.290,268.692 291.593 C 268.655 288.896,268.625 291.169,268.625 296.644 M129.343 289.747 C 129.631 289.802,130.048 289.800,130.269 289.742 C 130.490 289.684,130.255 289.639,129.745 289.642 C 129.236 289.644,129.055 289.692,129.343 289.747 M154.111 289.747 C 154.399 289.802,154.816 289.800,155.037 289.742 C 155.259 289.684,155.023 289.639,154.514 289.642 C 154.005 289.644,153.824 289.692,154.111 289.747 M166.611 289.747 C 166.899 289.802,167.316 289.800,167.537 289.742 C 167.759 289.684,167.523 289.639,167.014 289.642 C 166.505 289.644,166.324 289.692,166.611 289.747 M220.473 292.361 L 220.486 294.792 221.818 294.811 L 223.150 294.830 221.884 294.742 L 220.618 294.653 220.539 292.292 L 220.459 289.931 220.473 292.361 M274.871 292.361 L 274.884 294.792 277.315 294.805 L 279.745 294.819 277.381 294.739 L 275.016 294.660 274.937 292.295 L 274.857 289.931 274.871 292.361 M265.925 294.815 C 265.887 297.056,265.933 299.009,266.027 299.155 C 266.120 299.301,266.198 297.468,266.200 295.081 C 266.202 292.694,266.156 290.741,266.098 290.741 C 266.040 290.741,265.962 292.574,265.925 294.815 M125.100 296.644 C 125.100 299.826,125.133 301.161,125.173 299.608 C 125.213 298.056,125.213 295.452,125.173 293.821 C 125.133 292.191,125.101 293.461,125.100 296.644 M171.628 296.644 C 171.628 299.826,171.661 301.161,171.701 299.608 C 171.741 298.056,171.741 295.452,171.701 293.821 C 171.661 292.191,171.628 293.461,171.628 296.644 M152.414 296.644 C 152.414 299.572,152.447 300.738,152.488 299.235 C 152.528 297.731,152.528 295.336,152.487 293.911 C 152.447 292.485,152.414 293.715,152.414 296.644 M192.460 296.644 C 192.461 299.572,192.494 300.738,192.534 299.235 C 192.574 297.731,192.574 295.336,192.534 293.911 C 192.493 292.485,192.460 293.715,192.460 296.644 M196.627 296.644 C 196.627 299.572,196.660 300.738,196.701 299.235 C 196.741 297.731,196.741 295.336,196.700 293.911 C 196.660 292.485,196.627 293.715,196.627 296.644 M156.580 296.644 C 156.580 299.444,156.614 300.558,156.654 299.119 C 156.695 297.680,156.695 295.388,156.654 294.027 C 156.613 292.665,156.580 293.843,156.580 296.644 M162.136 296.644 C 162.136 299.444,162.169 300.558,162.210 299.119 C 162.251 297.680,162.250 295.388,162.210 294.027 C 162.169 292.665,162.136 293.843,162.136 296.644 M140.691 294.847 C 141.363 294.894,142.405 294.893,143.005 294.846 C 143.606 294.798,143.056 294.760,141.782 294.760 C 140.509 294.761,140.018 294.800,140.691 294.847 M205.787 294.825 C 207.724 294.996,209.902 295.009,209.803 294.850 C 209.744 294.754,208.633 294.693,207.336 294.715 C 206.038 294.736,205.341 294.786,205.787 294.825 M220.457 300.810 C 220.457 302.211,220.496 302.754,220.542 302.017 C 220.588 301.280,220.587 300.134,220.541 299.471 C 220.494 298.807,220.456 299.410,220.457 300.810 M274.855 300.810 C 274.856 302.211,274.894 302.754,274.940 302.017 C 274.986 301.280,274.985 300.134,274.939 299.471 C 274.892 298.807,274.855 299.410,274.855 300.810 M250.753 301.273 C 250.755 301.782,250.803 301.963,250.858 301.676 C 250.914 301.388,250.911 300.971,250.853 300.750 C 250.796 300.528,250.750 300.764,250.753 301.273 M129.343 303.636 C 129.631 303.691,130.048 303.689,130.269 303.631 C 130.490 303.573,130.255 303.528,129.745 303.531 C 129.236 303.533,129.055 303.581,129.343 303.636 M154.111 303.636 C 154.399 303.691,154.816 303.689,155.037 303.631 C 155.259 303.573,155.023 303.528,154.514 303.531 C 154.005 303.533,153.824 303.581,154.111 303.636 M166.493 303.632 C 166.716 303.690,167.080 303.690,167.303 303.632 C 167.526 303.574,167.344 303.526,166.898 303.526 C 166.453 303.526,166.270 303.574,166.493 303.632 M194.158 303.636 C 194.446 303.691,194.862 303.689,195.084 303.631 C 195.305 303.573,195.069 303.528,194.560 303.531 C 194.051 303.533,193.870 303.581,194.158 303.636 M234.549 303.632 C 234.771 303.690,235.136 303.690,235.359 303.632 C 235.582 303.574,235.399 303.526,234.954 303.526 C 234.508 303.526,234.326 303.574,234.549 303.632 M286.863 303.632 C 287.086 303.690,287.451 303.690,287.674 303.632 C 287.896 303.574,287.714 303.526,287.269 303.526 C 286.823 303.526,286.641 303.574,286.863 303.632 M261.872 305.440 C 261.874 306.076,261.918 306.309,261.972 305.957 C 262.025 305.606,262.023 305.085,261.969 304.800 C 261.914 304.515,261.870 304.803,261.872 305.440 M117.650 307.104 C 117.873 307.162,118.238 307.162,118.461 307.104 C 118.683 307.046,118.501 306.998,118.056 306.998 C 117.610 306.998,117.428 307.046,117.650 307.104 M129.340 307.108 C 129.627 307.163,130.095 307.163,130.382 307.108 C 130.668 307.053,130.434 307.007,129.861 307.007 C 129.288 307.007,129.054 307.053,129.340 307.108 M154.111 307.108 C 154.399 307.164,154.816 307.161,155.037 307.103 C 155.259 307.046,155.023 307.000,154.514 307.003 C 154.005 307.005,153.824 307.053,154.111 307.108 M166.493 307.104 C 166.716 307.162,167.080 307.162,167.303 307.104 C 167.526 307.046,167.344 306.998,166.898 306.998 C 166.453 306.998,166.270 307.046,166.493 307.104 M194.158 307.108 C 194.446 307.164,194.862 307.161,195.084 307.103 C 195.305 307.046,195.069 307.000,194.560 307.003 C 194.051 307.005,193.870 307.053,194.158 307.108 M234.549 307.104 C 234.771 307.162,235.136 307.162,235.359 307.104 C 235.582 307.046,235.399 306.998,234.954 306.998 C 234.508 306.998,234.326 307.046,234.549 307.104 M286.863 307.104 C 287.086 307.162,287.451 307.162,287.674 307.104 C 287.896 307.046,287.714 306.998,287.269 306.998 C 286.823 306.998,286.641 307.046,286.863 307.104 " stroke="none" fill="#6d7da3" fill-rule="evenodd"></path><path id="path3" d="M133.905 201.678 L 132.523 203.125 133.970 201.743 C 134.766 200.983,135.417 200.332,135.417 200.297 C 135.417 200.126,135.188 200.334,133.905 201.678 M43.580 208.962 C 43.931 209.016,44.452 209.014,44.737 208.959 C 45.022 208.904,44.734 208.861,44.097 208.863 C 43.461 208.864,43.228 208.909,43.580 208.962 M122.454 213.310 C 121.891 213.883,121.483 214.352,121.547 214.352 C 121.611 214.352,122.123 213.883,122.685 213.310 C 123.247 212.737,123.655 212.269,123.592 212.269 C 123.528 212.269,123.016 212.737,122.454 213.310 M291.030 220.761 C 291.253 220.820,291.617 220.820,291.840 220.761 C 292.063 220.703,291.881 220.656,291.435 220.656 C 290.990 220.656,290.807 220.703,291.030 220.761 M273.243 226.389 C 273.243 228.617,273.278 229.528,273.321 228.414 C 273.363 227.300,273.363 225.477,273.321 224.363 C 273.278 223.249,273.243 224.161,273.243 226.389 M289.525 230.260 C 289.939 230.311,290.616 230.311,291.030 230.260 C 291.444 230.209,291.105 230.167,290.278 230.167 C 289.450 230.167,289.112 230.209,289.525 230.260 M155.194 238.079 C 155.194 241.516,155.226 242.955,155.266 241.275 C 155.305 239.596,155.305 236.784,155.266 235.025 C 155.226 233.267,155.194 234.641,155.194 238.079 M142.209 238.542 C 142.210 239.560,142.251 239.948,142.299 239.404 C 142.348 238.859,142.348 238.026,142.298 237.552 C 142.248 237.078,142.208 237.523,142.209 238.542 M155.188 261.574 C 155.188 263.802,155.223 264.714,155.265 263.600 C 155.307 262.486,155.307 260.663,155.265 259.549 C 155.223 258.435,155.188 259.346,155.188 261.574 M155.156 266.667 C 155.156 267.240,155.201 267.474,155.256 267.188 C 155.311 266.901,155.311 266.432,155.256 266.146 C 155.201 265.859,155.156 266.094,155.156 266.667 M185.276 271.528 C 185.276 273.247,185.312 273.950,185.357 273.090 C 185.401 272.231,185.401 270.825,185.357 269.965 C 185.312 269.106,185.276 269.809,185.276 271.528 M220.460 272.801 C 220.461 274.456,220.498 275.103,220.542 274.238 C 220.587 273.373,220.587 272.019,220.542 271.229 C 220.496 270.438,220.460 271.146,220.460 272.801 M273.243 273.843 C 273.243 276.071,273.278 276.982,273.321 275.868 C 273.363 274.754,273.363 272.931,273.321 271.817 C 273.278 270.703,273.243 271.615,273.243 273.843 M136.917 296.644 L 136.921 306.597 138.194 306.597 L 139.468 306.597 139.476 302.372 L 139.484 298.148 139.413 302.315 L 139.341 306.481 138.192 306.481 L 137.042 306.481 136.978 296.586 L 136.914 286.690 136.917 296.644 M139.446 290.509 C 139.446 292.610,139.481 293.469,139.524 292.419 C 139.567 291.369,139.567 289.650,139.524 288.600 C 139.481 287.549,139.446 288.409,139.446 290.509 M266.054 288.773 C 266.054 289.919,266.093 290.417,266.141 289.880 C 266.190 289.342,266.190 288.405,266.143 287.796 C 266.095 287.188,266.055 287.627,266.054 288.773 M210.644 288.704 C 210.583 289.430,210.617 289.940,210.720 289.836 C 210.823 289.733,210.874 289.139,210.832 288.516 L 210.756 287.384 210.644 288.704 M206.778 289.985 C 207.386 290.033,208.324 290.033,208.861 289.984 C 209.398 289.935,208.900 289.896,207.755 289.897 C 206.609 289.898,206.169 289.937,206.778 289.985 M221.238 289.982 C 221.652 290.034,222.329 290.034,222.743 289.982 C 223.157 289.931,222.818 289.889,221.991 289.889 C 221.163 289.889,220.825 289.931,221.238 289.982 M277.380 289.985 C 277.988 290.033,278.926 290.033,279.463 289.984 C 280.000 289.935,279.502 289.896,278.356 289.897 C 277.211 289.898,276.771 289.937,277.380 289.985 M283.165 291.898 C 283.165 292.471,283.210 292.705,283.265 292.419 C 283.320 292.133,283.320 291.664,283.265 291.377 C 283.210 291.091,283.165 291.325,283.165 291.898 M285.702 291.898 C 285.702 292.344,285.749 292.526,285.808 292.303 C 285.866 292.080,285.866 291.716,285.808 291.493 C 285.749 291.270,285.702 291.453,285.702 291.898 M209.796 296.528 C 209.796 297.355,209.838 297.694,209.890 297.280 C 209.941 296.866,209.941 296.189,209.890 295.775 C 209.838 295.362,209.796 295.700,209.796 296.528 M253.335 306.302 C 253.375 306.497,253.815 306.597,254.630 306.597 C 255.445 306.597,255.885 306.497,255.924 306.302 C 255.957 306.140,255.931 306.114,255.866 306.244 C 255.801 306.375,255.245 306.481,254.630 306.481 C 254.014 306.481,253.458 306.375,253.393 306.244 C 253.328 306.114,253.302 306.140,253.335 306.302 M203.935 306.481 L 202.894 306.643 203.864 306.678 C 204.397 306.697,204.898 306.609,204.977 306.481 C 205.056 306.354,205.088 306.266,205.048 306.285 C 205.009 306.304,204.508 306.392,203.935 306.481 M259.469 306.553 C 259.573 306.657,260.167 306.707,260.789 306.665 L 261.921 306.590 260.601 306.478 C 259.875 306.416,259.366 306.450,259.469 306.553 M272.222 306.539 C 272.222 306.635,274.123 306.693,276.447 306.668 C 280.725 306.623,280.225 306.536,275.057 306.426 C 273.498 306.393,272.222 306.444,272.222 306.539 M176.794 306.654 C 177.972 306.696,179.899 306.696,181.076 306.654 C 182.254 306.612,181.291 306.578,178.935 306.578 C 176.580 306.578,175.616 306.612,176.794 306.654 M219.271 306.653 C 220.130 306.698,221.536 306.698,222.396 306.653 C 223.255 306.609,222.552 306.572,220.833 306.572 C 219.115 306.572,218.411 306.609,219.271 306.653 M267.419 306.641 C 267.642 306.699,268.006 306.699,268.229 306.641 C 268.452 306.583,268.270 306.535,267.824 306.535 C 267.378 306.535,267.196 306.583,267.419 306.641 " stroke="none" fill="#8b9cc2" fill-rule="evenodd"></path><path id="path4" d="M198.244 231.481 C 198.244 233.837,198.279 234.800,198.321 233.623 C 198.363 232.445,198.363 230.518,198.321 229.340 C 198.279 228.163,198.244 229.126,198.244 231.481 M233.429 235.069 C 233.429 237.361,233.464 238.267,233.506 237.083 C 233.548 235.899,233.548 234.024,233.506 232.917 C 233.463 231.809,233.429 232.778,233.429 235.069 M185.044 247.917 C 185.044 249.635,185.081 250.339,185.125 249.479 C 185.170 248.620,185.170 247.214,185.125 246.354 C 185.081 245.495,185.044 246.198,185.044 247.917 M220.229 249.653 C 220.229 251.308,220.266 251.955,220.311 251.090 C 220.355 250.225,220.355 248.871,220.310 248.081 C 220.265 247.290,220.228 247.998,220.229 249.653 M159.664 269.155 C 161.861 269.193,165.454 269.193,167.650 269.155 C 169.847 269.117,168.050 269.086,163.657 269.086 C 159.265 269.086,157.468 269.117,159.664 269.155 M259.144 269.147 C 266.776 269.309,273.095 269.313,272.997 269.155 C 272.938 269.060,269.119 269.004,264.512 269.032 C 259.904 269.060,257.488 269.111,259.144 269.147 M288.594 270.074 C 289.005 270.126,289.734 270.126,290.215 270.076 C 290.695 270.026,290.359 269.984,289.468 269.983 C 288.576 269.982,288.183 270.023,288.594 270.074 M115.454 278.636 C 115.742 278.691,116.159 278.689,116.380 278.631 C 116.601 278.573,116.366 278.528,115.856 278.531 C 115.347 278.533,115.166 278.581,115.454 278.636 M117.998 278.642 C 118.539 278.690,119.424 278.690,119.965 278.642 C 120.506 278.593,120.064 278.553,118.981 278.553 C 117.899 278.553,117.457 278.593,117.998 278.642 M136.407 278.643 C 137.016 278.690,137.954 278.690,138.491 278.641 C 139.028 278.593,138.530 278.554,137.384 278.554 C 136.238 278.555,135.799 278.595,136.407 278.643 M148.553 278.636 C 148.840 278.691,149.308 278.691,149.595 278.636 C 149.881 278.580,149.647 278.535,149.074 278.535 C 148.501 278.535,148.267 278.580,148.553 278.636 M155.629 278.646 C 158.662 278.682,163.558 278.682,166.509 278.646 C 169.460 278.609,166.979 278.579,160.995 278.579 C 155.012 278.579,152.597 278.609,155.629 278.646 M180.392 278.644 C 181.256 278.689,182.610 278.688,183.401 278.643 C 184.191 278.598,183.484 278.562,181.829 278.562 C 180.174 278.563,179.527 278.599,180.392 278.644 M201.678 278.632 C 201.901 278.690,202.266 278.690,202.488 278.632 C 202.711 278.574,202.529 278.526,202.083 278.526 C 201.638 278.526,201.455 278.574,201.678 278.632 M214.410 278.642 C 215.014 278.690,216.004 278.690,216.609 278.642 C 217.214 278.595,216.719 278.556,215.509 278.556 C 214.300 278.556,213.805 278.595,214.410 278.642 M236.524 278.643 C 237.197 278.690,238.238 278.690,238.839 278.642 C 239.439 278.595,238.889 278.556,237.616 278.557 C 236.343 278.557,235.851 278.596,236.524 278.643 M255.266 278.646 C 258.481 278.682,263.741 278.682,266.956 278.646 C 270.171 278.609,267.541 278.580,261.111 278.580 C 254.682 278.580,252.052 278.609,255.266 278.646 M202.421 296.528 C 202.421 301.939,202.451 304.152,202.488 301.447 C 202.525 298.741,202.525 294.314,202.488 291.609 C 202.451 288.903,202.421 291.117,202.421 296.528 M253.347 296.528 C 253.347 301.811,253.377 303.973,253.414 301.331 C 253.451 298.689,253.451 294.366,253.414 291.725 C 253.377 289.083,253.347 291.244,253.347 296.528 M255.893 296.528 C 255.893 301.811,255.923 303.973,255.960 301.331 C 255.998 298.689,255.998 294.366,255.960 291.725 C 255.923 289.083,255.893 291.244,255.893 296.528 M127.644 296.644 C 127.644 299.317,127.678 300.379,127.719 299.004 C 127.760 297.628,127.760 295.441,127.719 294.143 C 127.678 292.844,127.644 293.970,127.644 296.644 M178.530 303.411 C 179.135 303.459,180.124 303.459,180.729 303.411 C 181.334 303.363,180.839 303.324,179.630 303.324 C 178.420 303.324,177.925 303.363,178.530 303.411 M221.701 303.404 C 221.988 303.459,222.457 303.459,222.743 303.404 C 223.030 303.349,222.795 303.304,222.222 303.304 C 221.649 303.304,221.415 303.349,221.701 303.404 M277.033 303.412 C 277.706 303.459,278.748 303.458,279.348 303.411 C 279.949 303.363,279.398 303.325,278.125 303.325 C 276.852 303.326,276.361 303.365,277.033 303.412 " stroke="none" fill="#949cbd" fill-rule="evenodd"></path></g></svg>