<svg id="svg" version="1.1" xmlns="http://www.w3.org/2000/svg" xmlns:xlink="http://www.w3.org/1999/xlink" width="400" height="400" viewBox="0, 0, 400,400"><g id="svgg"><path id="path0" d="M133.889 93.649 C 114.782 94.802,87.748 100.612,65.600 108.326 C 56.048 111.654,54.674 112.242,52.940 113.746 C 49.738 116.524,49.999 107.979,50.005 209.571 L 50.010 300.200 50.905 302.080 C 53.339 307.192,58.436 308.314,66.000 305.403 C 73.896 302.364,87.814 298.022,96.200 295.982 C 142.417 284.738,175.185 287.321,192.340 303.560 C 197.589 308.528,202.796 308.339,208.427 302.974 C 223.716 288.411,254.338 285.244,295.200 294.000 C 307.822 296.705,323.097 301.197,334.000 305.411 C 341.473 308.299,346.744 307.175,349.060 302.201 L 349.992 300.200 349.996 209.179 L 350.000 118.157 349.000 116.179 C 347.415 113.044,344.808 111.710,332.000 107.486 C 276.274 89.107,229.111 88.494,202.834 105.806 L 200.000 107.672 197.100 105.755 C 182.263 95.947,161.552 91.980,133.889 93.649 M266.858 109.821 C 274.805 110.458,275.831 110.584,284.400 111.991 C 291.408 113.141,302.764 115.671,309.800 117.649 C 320.234 120.583,330.237 123.798,331.100 124.494 C 331.609 124.906,331.891 286.375,331.384 286.883 C 331.265 287.002,329.240 286.487,326.884 285.740 C 280.897 271.143,237.077 269.242,212.000 280.756 C 211.010 281.211,209.975 281.586,209.700 281.591 C 208.789 281.607,208.988 122.589,209.900 121.635 C 218.884 112.251,240.706 107.724,266.858 109.821 " stroke="none" fill="#fbfbfb" fill-rule="evenodd"></path><path id="path1" d="M65.200 0.284 C 61.127 0.737,55.943 1.623,55.315 1.974 C 54.922 2.194,53.437 2.656,52.015 3.000 C 50.594 3.345,49.334 3.761,49.215 3.924 C 49.097 4.088,47.965 4.541,46.700 4.931 C 45.435 5.322,44.400 5.792,44.400 5.976 C 44.400 6.160,43.802 6.423,43.071 6.560 C 42.339 6.698,40.925 7.327,39.928 7.960 C 38.931 8.592,37.729 9.232,37.257 9.382 C 36.786 9.531,36.400 9.794,36.400 9.966 C 36.400 10.138,35.680 10.603,34.800 11.000 C 33.920 11.397,33.200 11.852,33.200 12.012 C 33.200 12.172,32.656 12.528,31.991 12.804 C 31.325 13.079,30.650 13.511,30.491 13.762 C 30.331 14.013,29.693 14.542,29.073 14.936 C 26.585 16.520,16.550 26.550,14.930 29.073 C 14.532 29.693,13.892 30.547,13.508 30.971 C 13.124 31.394,12.705 32.069,12.578 32.471 C 12.450 32.872,12.181 33.200,11.978 33.200 C 11.776 33.200,11.345 33.836,11.020 34.614 C 10.695 35.392,10.153 36.305,9.815 36.643 C 9.477 36.981,9.200 37.479,9.200 37.751 C 9.200 38.022,8.742 38.865,8.182 39.622 C 7.622 40.380,6.970 41.765,6.734 42.700 C 6.498 43.635,6.156 44.400,5.973 44.400 C 5.790 44.400,5.322 45.435,4.931 46.700 C 4.541 47.965,4.116 49.090,3.986 49.200 C 3.857 49.310,3.421 50.660,3.018 52.200 C 2.616 53.740,2.158 55.180,2.000 55.400 C 1.596 55.966,0.909 59.917,0.399 64.600 C 0.092 67.427,0.006 107.893,0.105 202.600 C 0.255 344.876,0.211 341.534,1.973 344.683 C 2.194 345.077,2.656 346.563,3.000 347.985 C 3.345 349.406,3.761 350.666,3.924 350.785 C 4.088 350.903,4.541 352.035,4.931 353.300 C 5.322 354.565,5.792 355.600,5.976 355.600 C 6.160 355.600,6.423 356.198,6.560 356.929 C 6.698 357.661,7.327 359.075,7.960 360.072 C 8.592 361.069,9.232 362.271,9.382 362.743 C 9.531 363.214,9.794 363.600,9.966 363.600 C 10.138 363.600,10.603 364.320,11.000 365.200 C 11.397 366.080,11.852 366.800,12.012 366.800 C 12.172 366.800,12.528 367.344,12.804 368.009 C 13.079 368.675,13.511 369.350,13.762 369.509 C 14.013 369.669,14.542 370.307,14.936 370.927 C 16.520 373.415,26.550 383.450,29.073 385.070 C 29.693 385.468,30.547 386.108,30.971 386.492 C 31.394 386.876,32.069 387.295,32.471 387.422 C 32.872 387.550,33.200 387.819,33.200 388.022 C 33.200 388.224,33.836 388.655,34.614 388.980 C 35.392 389.305,36.305 389.847,36.643 390.185 C 36.981 390.523,37.479 390.800,37.751 390.800 C 38.022 390.800,38.865 391.258,39.622 391.818 C 40.380 392.378,41.765 393.030,42.700 393.266 C 43.635 393.502,44.400 393.844,44.400 394.027 C 44.400 394.210,45.435 394.678,46.700 395.069 C 47.965 395.459,49.090 395.884,49.200 396.014 C 49.310 396.143,50.660 396.579,52.200 396.982 C 53.740 397.384,55.180 397.842,55.400 398.000 C 55.966 398.404,59.917 399.091,64.600 399.601 C 67.427 399.908,107.893 399.994,202.600 399.895 C 344.876 399.745,341.534 399.789,344.683 398.027 C 345.077 397.806,346.563 397.344,347.985 397.000 C 349.406 396.655,350.666 396.239,350.785 396.076 C 350.903 395.912,352.035 395.459,353.300 395.069 C 354.565 394.678,355.600 394.208,355.600 394.024 C 355.600 393.840,356.198 393.577,356.929 393.440 C 357.661 393.302,359.075 392.673,360.072 392.040 C 361.069 391.408,362.271 390.768,362.743 390.618 C 363.214 390.469,363.600 390.206,363.600 390.034 C 363.600 389.862,364.320 389.397,365.200 389.000 C 366.080 388.603,366.800 388.148,366.800 387.988 C 366.800 387.828,367.344 387.472,368.009 387.196 C 368.675 386.921,369.350 386.489,369.509 386.238 C 369.669 385.987,370.307 385.458,370.927 385.064 C 373.415 383.480,383.450 373.450,385.070 370.927 C 385.468 370.307,386.108 369.453,386.492 369.029 C 386.876 368.606,387.295 367.931,387.422 367.529 C 387.550 367.128,387.819 366.800,388.022 366.800 C 388.224 366.800,388.655 366.164,388.980 365.386 C 389.305 364.608,389.847 363.695,390.185 363.357 C 390.523 363.019,390.800 362.521,390.800 362.249 C 390.800 361.978,391.258 361.135,391.818 360.378 C 392.378 359.620,393.030 358.235,393.266 357.300 C 393.502 356.365,393.844 355.600,394.027 355.600 C 394.210 355.600,394.678 354.565,395.069 353.300 C 395.459 352.035,395.884 350.910,396.014 350.800 C 396.143 350.690,396.579 349.340,396.982 347.800 C 397.384 346.260,397.842 344.820,398.000 344.600 C 398.404 344.034,399.091 340.083,399.601 335.400 C 399.908 332.573,399.994 292.107,399.895 197.400 C 399.745 55.124,399.789 58.466,398.027 55.317 C 397.806 54.923,397.344 53.437,397.000 52.015 C 396.655 50.594,396.239 49.334,396.076 49.215 C 395.912 49.097,395.459 47.965,395.069 46.700 C 394.678 45.435,394.208 44.400,394.024 44.400 C 393.840 44.400,393.577 43.802,393.440 43.071 C 393.302 42.339,392.673 40.925,392.040 39.928 C 391.408 38.931,390.768 37.729,390.618 37.257 C 390.469 36.786,390.206 36.400,390.034 36.400 C 389.862 36.400,389.397 35.680,389.000 34.800 C 388.603 33.920,388.148 33.200,387.988 33.200 C 387.828 33.200,387.472 32.656,387.196 31.991 C 386.921 31.325,386.489 30.650,386.238 30.491 C 385.987 30.331,385.458 29.693,385.064 29.073 C 383.480 26.585,373.450 16.550,370.927 14.930 C 370.307 14.532,369.453 13.892,369.029 13.508 C 368.606 13.124,367.931 12.705,367.529 12.578 C 367.128 12.450,366.800 12.181,366.800 11.978 C 366.800 11.776,366.164 11.345,365.386 11.020 C 364.608 10.695,363.695 10.153,363.357 9.815 C 363.019 9.477,362.521 9.200,362.249 9.200 C 361.978 9.200,361.135 8.742,360.378 8.182 C 359.620 7.622,358.235 6.970,357.300 6.734 C 356.365 6.498,355.600 6.156,355.600 5.973 C 355.600 5.790,354.565 5.322,353.300 4.931 C 352.035 4.541,350.910 4.116,350.800 3.986 C 350.690 3.857,349.340 3.421,347.800 3.018 C 346.260 2.616,344.820 2.155,344.600 1.996 C 344.108 1.639,340.131 0.932,335.610 0.400 C 332.404 0.022,68.574 -0.092,65.200 0.284 M328.486 5.411 C 363.219 10.114,389.030 34.980,394.285 68.800 C 395.401 75.980,395.393 324.609,394.277 331.400 C 388.893 364.153,364.130 388.917,331.400 394.279 C 324.588 395.395,75.957 395.399,68.800 394.283 C 34.936 389.003,9.663 362.707,5.406 328.322 C 4.485 320.880,4.490 78.320,5.411 71.514 C 10.325 35.222,36.055 9.848,72.600 5.253 C 78.092 4.563,323.338 4.714,328.486 5.411 " stroke="none" fill="#fb7304" fill-rule="evenodd"></path><path id="path2" d="M72.442 5.621 C 70.375 5.790,67.945 6.117,67.042 6.348 C 66.139 6.579,64.087 7.049,62.482 7.393 C 32.207 13.875,8.032 42.083,5.569 73.800 C 5.007 81.030,5.305 328.314,5.878 330.800 C 6.106 331.790,6.663 334.310,7.114 336.400 C 13.825 367.468,40.873 391.373,72.731 394.394 C 78.519 394.943,320.835 394.945,327.200 394.397 C 338.630 393.411,349.095 389.759,360.957 382.616 C 378.561 372.016,392.309 349.260,394.394 327.269 C 394.943 321.481,394.945 79.165,394.397 72.800 C 393.417 61.445,389.487 50.171,382.677 39.185 C 371.358 20.925,348.913 7.432,326.800 5.595 C 321.288 5.137,78.060 5.162,72.442 5.621 M164.600 93.944 C 178.167 96.014,188.550 99.592,196.845 105.057 C 200.099 107.201,199.895 107.205,203.355 104.925 C 217.226 95.785,242.930 90.956,266.022 93.150 C 274.902 93.994,282.225 94.822,284.400 95.227 C 285.610 95.453,288.738 95.993,291.351 96.427 C 293.964 96.861,296.243 97.303,296.415 97.410 C 296.588 97.516,298.187 97.880,299.969 98.218 C 304.892 99.152,318.298 102.628,324.400 104.553 C 326.270 105.143,328.970 105.977,330.400 106.407 C 331.830 106.836,333.360 107.350,333.800 107.548 C 334.240 107.747,336.760 108.688,339.400 109.641 C 346.332 112.142,348.405 113.431,349.452 115.887 C 350.402 118.119,350.254 300.894,349.299 302.789 C 347.246 306.868,341.588 308.624,336.490 306.765 C 334.588 306.072,326.132 303.040,324.000 302.287 C 323.310 302.043,316.720 300.041,312.600 298.823 C 302.741 295.908,288.633 292.897,278.800 291.607 C 275.610 291.189,271.650 290.642,270.000 290.391 C 265.806 289.753,248.182 289.448,243.600 289.933 C 238.860 290.435,230.149 291.899,229.263 292.344 C 228.898 292.527,227.430 292.995,226.000 293.384 C 219.965 295.029,213.193 298.911,208.512 303.412 C 202.420 309.269,197.456 309.160,191.027 303.028 C 184.958 297.240,175.027 292.690,165.200 291.196 C 163.550 290.945,161.480 290.565,160.600 290.351 C 149.805 287.731,120.867 290.529,96.000 296.597 C 85.604 299.135,68.925 304.386,64.050 306.656 C 59.422 308.812,52.761 306.882,50.701 302.789 C 49.809 301.017,49.591 118.195,50.478 116.119 C 51.510 113.705,54.406 111.656,58.800 110.230 C 59.790 109.909,62.130 109.088,64.000 108.406 C 71.743 105.581,78.779 103.467,90.800 100.352 C 101.019 97.705,114.632 95.168,124.000 94.165 C 127.190 93.824,131.060 93.393,132.600 93.207 C 138.168 92.537,158.436 93.003,164.600 93.944 M243.400 109.999 C 229.918 111.295,219.033 114.982,211.839 120.688 L 209.600 122.465 209.600 201.827 L 209.600 281.188 211.700 280.331 C 226.998 274.082,248.271 271.310,266.800 273.150 C 282.605 274.719,286.061 275.246,301.200 278.401 C 308.540 279.931,323.012 283.842,327.936 285.626 C 329.110 286.052,330.236 286.400,330.437 286.400 C 330.656 286.400,330.762 254.130,330.701 205.500 L 330.600 124.600 326.800 123.317 C 313.614 118.865,301.060 115.548,289.222 113.386 C 286.264 112.846,283.564 112.316,283.222 112.209 C 282.315 111.923,269.698 110.407,264.800 109.994 C 260.030 109.593,247.596 109.595,243.400 109.999 " stroke="none" fill="#0c1c3c" fill-rule="evenodd"></path><path id="path3" d="M73.400 5.163 C 72.300 5.293,129.270 5.400,200.000 5.400 C 270.730 5.400,327.700 5.281,326.600 5.135 C 324.125 4.807,76.170 4.834,73.400 5.163 M65.800 6.206 C 65.580 6.285,64.351 6.556,63.068 6.810 C 61.786 7.063,60.822 7.355,60.926 7.460 C 61.129 7.662,67.255 6.478,67.555 6.178 C 67.761 5.972,66.394 5.994,65.800 6.206 M335.375 6.818 C 337.122 7.257,338.742 7.550,338.975 7.469 C 339.426 7.312,336.470 6.611,333.800 6.241 C 332.920 6.119,333.629 6.379,335.375 6.818 M56.258 8.652 C 55.190 8.980,54.413 9.346,54.532 9.465 C 54.757 9.691,58.800 8.462,58.800 8.168 C 58.800 7.918,58.397 7.995,56.258 8.652 M342.244 8.595 C 342.928 8.904,344.008 9.257,344.644 9.380 L 345.800 9.604 344.600 9.057 C 343.940 8.756,342.860 8.402,342.200 8.271 L 341.000 8.033 342.244 8.595 M51.733 10.322 C 50.081 10.994,49.128 11.623,49.833 11.575 C 50.393 11.538,54.257 9.668,53.800 9.656 C 53.580 9.650,52.650 9.950,51.733 10.322 M348.358 10.808 C 349.325 11.253,350.205 11.528,350.314 11.420 C 350.521 11.212,349.286 10.681,347.600 10.253 C 347.050 10.113,347.391 10.363,348.358 10.808 M45.658 13.177 C 44.040 14.028,42.510 14.940,42.258 15.204 C 41.899 15.580,48.490 12.268,49.167 11.732 C 49.893 11.156,48.084 11.901,45.658 13.177 M351.729 12.262 C 352.100 12.633,355.200 13.997,355.200 13.789 C 355.200 13.581,352.150 12.000,351.749 12.000 C 351.594 12.000,351.585 12.118,351.729 12.262 M355.600 14.192 C 355.600 14.297,356.320 14.751,357.200 15.200 C 359.149 16.194,359.300 15.974,357.453 14.833 C 356.111 14.004,355.600 13.827,355.600 14.192 M37.726 17.973 C 35.787 19.278,33.300 21.177,32.200 22.193 C 30.457 23.803,30.594 23.735,33.267 21.667 C 34.953 20.362,37.518 18.528,38.967 17.592 C 41.373 16.036,41.911 15.600,41.426 15.600 C 41.331 15.600,39.666 16.668,37.726 17.973 M359.200 16.174 C 359.200 16.285,360.235 17.036,361.500 17.843 C 362.765 18.651,365.150 20.396,366.800 21.722 C 368.450 23.048,369.440 23.722,369.000 23.221 C 367.497 21.509,359.200 15.542,359.200 16.174 M26.788 27.012 C 25.156 28.655,23.921 30.000,24.045 30.000 C 24.402 30.000,30.094 24.361,29.916 24.183 C 29.829 24.095,28.421 25.368,26.788 27.012 M370.363 24.556 C 371.263 25.640,375.747 30.000,375.962 30.000 C 376.082 30.000,374.839 28.650,373.200 27.000 C 370.474 24.255,369.211 23.168,370.363 24.556 M21.894 32.500 C 18.819 36.153,15.611 40.800,16.165 40.800 C 16.271 40.800,17.034 39.765,17.861 38.500 C 18.688 37.235,20.419 34.895,21.708 33.300 C 24.399 29.970,24.542 29.355,21.894 32.500 M378.084 32.960 C 380.945 36.693,382.374 38.244,380.736 35.840 C 380.001 34.762,378.628 33.052,377.684 32.040 C 376.112 30.354,376.145 30.432,378.084 32.960 M382.578 39.075 C 382.917 39.776,383.394 40.472,383.637 40.623 C 384.174 40.955,383.595 39.815,382.610 38.600 C 382.008 37.857,382.006 37.891,382.578 39.075 M14.787 42.621 C 14.304 43.403,14.007 44.140,14.126 44.260 C 14.246 44.380,14.720 43.740,15.180 42.839 C 16.208 40.824,15.977 40.696,14.787 42.621 M384.586 42.300 C 384.935 43.015,385.306 43.600,385.410 43.600 C 385.808 43.600,385.552 42.963,384.767 42.000 L 383.952 41.000 384.586 42.300 M386.600 46.000 C 387.157 47.100,387.703 48.000,387.813 48.000 C 387.923 48.000,387.557 47.100,387.000 46.000 C 386.443 44.900,385.897 44.000,385.787 44.000 C 385.677 44.000,386.043 44.900,386.600 46.000 M12.780 46.439 C 12.320 47.340,12.042 48.175,12.161 48.294 C 12.280 48.413,12.563 48.024,12.789 47.429 C 13.015 46.833,13.387 45.998,13.614 45.573 C 13.842 45.148,13.935 44.800,13.822 44.800 C 13.709 44.800,13.240 45.537,12.780 46.439 M10.865 50.445 C 10.082 52.535,10.045 53.298,10.808 51.642 C 11.253 50.675,11.528 49.795,11.420 49.686 C 11.311 49.578,11.061 49.919,10.865 50.445 M388.417 49.900 C 388.439 50.301,389.962 53.070,389.983 52.749 C 390.011 52.335,388.805 49.600,388.595 49.600 C 388.488 49.600,388.408 49.735,388.417 49.900 M8.629 56.429 C 7.815 59.168,8.114 59.467,9.000 56.800 C 9.375 55.671,9.585 54.652,9.468 54.535 C 9.351 54.417,8.973 55.269,8.629 56.429 M390.620 55.356 C 390.743 55.992,391.096 57.072,391.405 57.756 L 391.967 59.000 391.729 57.800 C 391.598 57.140,391.244 56.060,390.943 55.400 L 390.396 54.200 390.620 55.356 M6.892 62.600 C 6.074 66.413,6.024 67.785,6.818 64.625 C 7.257 62.878,7.550 61.258,7.469 61.025 C 7.387 60.791,7.128 61.500,6.892 62.600 M392.450 61.200 C 392.431 61.530,392.666 62.700,392.972 63.800 C 393.305 64.997,393.530 65.398,393.533 64.800 C 393.539 63.688,392.504 60.250,392.450 61.200 M5.057 74.059 C 4.720 77.284,4.800 323.536,5.140 326.400 C 5.283 327.610,5.400 270.775,5.400 200.100 C 5.400 129.425,5.381 71.600,5.357 71.600 C 5.333 71.600,5.198 72.706,5.057 74.059 M394.600 200.200 C 394.600 271.040,394.717 328.010,394.860 326.800 C 395.201 323.925,395.201 76.475,394.860 73.600 C 394.717 72.390,394.600 129.360,394.600 200.200 M6.178 333.800 C 6.775 337.158,7.285 339.248,7.464 339.069 C 7.688 338.846,6.455 332.713,6.125 332.412 C 5.998 332.295,6.022 332.920,6.178 333.800 M393.040 335.639 C 392.657 337.420,392.424 338.957,392.521 339.054 C 392.720 339.254,393.392 336.649,393.799 334.100 C 394.255 331.239,393.777 332.209,393.040 335.639 M8.271 342.200 C 8.402 342.860,8.756 343.940,9.057 344.600 L 9.604 345.800 9.380 344.644 C 9.257 344.008,8.904 342.928,8.595 342.244 L 8.033 341.000 8.271 342.200 M391.000 343.200 C 390.625 344.329,390.415 345.348,390.532 345.465 C 390.649 345.583,391.027 344.731,391.371 343.571 C 392.185 340.832,391.886 340.533,391.000 343.200 M9.852 346.765 C 10.240 348.304,11.229 350.504,11.438 350.295 C 11.544 350.190,11.175 349.135,10.619 347.952 C 10.063 346.768,9.718 346.234,9.852 346.765 M386.718 353.555 C 385.243 356.550,384.318 358.640,384.661 358.200 C 385.479 357.153,389.775 348.435,389.563 348.252 C 389.473 348.174,388.193 350.561,386.718 353.555 M11.600 350.956 C 11.600 351.465,14.854 357.586,15.257 357.835 C 15.470 357.967,14.794 356.483,13.754 354.537 C 11.699 350.691,11.600 350.527,11.600 350.956 M16.402 359.900 C 17.827 362.327,20.580 366.065,22.369 368.000 C 23.297 369.004,22.886 368.337,21.440 366.491 C 20.014 364.671,18.193 362.106,17.394 360.791 C 16.596 359.476,15.847 358.400,15.732 358.400 C 15.616 358.400,15.917 359.075,16.402 359.900 M383.302 359.700 C 382.541 360.661,381.901 362.109,382.363 361.823 C 382.606 361.672,383.079 361.021,383.413 360.375 C 384.043 359.156,383.990 358.832,383.302 359.700 M378.879 366.100 C 377.284 368.135,376.748 368.972,377.689 367.960 C 379.301 366.227,382.209 362.400,381.915 362.400 C 381.840 362.400,380.474 364.065,378.879 366.100 M24.000 370.061 C 24.000 370.148,25.350 371.561,27.000 373.200 C 28.650 374.839,30.000 376.082,30.000 375.962 C 30.000 375.842,28.900 374.637,27.556 373.284 C 24.963 370.675,24.000 369.802,24.000 370.061 M372.800 373.000 C 371.161 374.650,369.910 376.000,370.020 376.000 C 370.130 376.000,371.561 374.650,373.200 373.000 C 374.839 371.350,376.090 370.000,375.980 370.000 C 375.870 370.000,374.439 371.350,372.800 373.000 M32.040 377.677 C 33.052 378.625,34.762 380.013,35.840 380.761 C 38.477 382.592,37.319 381.493,33.400 378.444 C 31.079 376.639,30.706 376.428,32.040 377.677 M367.183 377.924 C 365.963 378.956,364.343 380.307,363.583 380.926 C 362.507 381.802,362.635 381.757,364.160 380.726 C 366.027 379.463,370.022 376.022,369.600 376.040 C 369.490 376.045,368.402 376.893,367.183 377.924 M38.181 382.370 C 38.330 382.610,38.999 383.089,39.669 383.436 C 40.340 383.782,40.767 383.870,40.619 383.630 C 40.470 383.390,39.801 382.911,39.131 382.564 C 38.460 382.218,38.033 382.130,38.181 382.370 M360.500 382.796 C 359.160 383.613,358.653 384.329,359.900 383.643 C 360.829 383.133,362.252 382.028,362.000 382.014 C 361.890 382.008,361.215 382.360,360.500 382.796 M41.800 384.626 C 42.748 385.384,48.829 388.506,49.004 388.325 C 49.071 388.256,47.297 387.252,45.063 386.093 C 42.828 384.935,41.360 384.275,41.800 384.626 M355.498 385.756 C 351.514 387.958,350.977 388.510,354.600 386.680 C 357.106 385.414,359.333 384.011,358.800 384.034 C 358.690 384.039,357.204 384.814,355.498 385.756 M49.820 388.755 C 50.029 388.950,50.650 389.228,51.200 389.372 L 52.200 389.633 51.200 389.031 C 50.086 388.359,49.209 388.184,49.820 388.755 M348.400 389.200 C 347.630 389.622,347.113 389.974,347.251 389.983 C 347.665 390.011,350.400 388.805,350.400 388.595 C 350.400 388.246,349.825 388.420,348.400 389.200 M55.400 390.943 C 56.060 391.244,57.140 391.598,57.800 391.729 L 59.000 391.967 57.756 391.405 C 57.072 391.096,55.992 390.743,55.356 390.620 L 54.200 390.396 55.400 390.943 M342.875 391.073 C 341.926 391.409,341.221 391.754,341.307 391.840 C 341.503 392.036,345.600 390.837,345.600 390.585 C 345.600 390.271,344.674 390.437,342.875 391.073 M62.200 392.982 C 63.080 393.259,64.700 393.591,65.800 393.721 C 67.470 393.917,67.305 393.830,64.800 393.194 C 61.452 392.345,59.723 392.203,62.200 392.982 M336.000 393.000 C 334.789 393.351,334.527 393.524,335.200 393.530 C 335.750 393.535,336.920 393.301,337.800 393.011 C 339.874 392.328,338.353 392.318,336.000 393.000 M73.400 394.865 C 75.972 395.206,323.411 395.197,326.600 394.857 C 327.920 394.715,271.040 394.600,200.200 394.600 C 129.360 394.600,72.300 394.719,73.400 394.865 " stroke="none" fill="#614234" fill-rule="evenodd"></path><path id="path4" d="M143.500 93.096 C 144.875 93.174,147.125 93.174,148.500 93.096 C 149.875 93.018,148.750 92.954,146.000 92.954 C 143.250 92.954,142.125 93.018,143.500 93.096 M251.317 93.097 C 252.811 93.174,255.151 93.174,256.517 93.096 C 257.882 93.018,256.660 92.955,253.800 92.955 C 250.940 92.956,249.822 93.020,251.317 93.097 M248.307 273.090 C 249.026 273.179,250.106 273.177,250.707 273.086 C 251.308 272.995,250.720 272.922,249.400 272.924 C 248.080 272.926,247.588 273.001,248.307 273.090 M257.107 273.090 C 257.826 273.179,258.906 273.177,259.507 273.086 C 260.108 272.995,259.520 272.922,258.200 272.924 C 256.880 272.926,256.388 273.001,257.107 273.090 M144.313 289.495 C 145.476 289.576,147.276 289.576,148.313 289.493 C 149.351 289.411,148.400 289.345,146.200 289.346 C 144.000 289.347,143.151 289.414,144.313 289.495 M251.700 289.494 C 252.745 289.576,254.455 289.576,255.500 289.494 C 256.545 289.412,255.690 289.344,253.600 289.344 C 251.510 289.344,250.655 289.412,251.700 289.494 " stroke="none" fill="#848c9c" fill-rule="evenodd"></path><path id="path5" d="M136.505 93.487 C 137.114 93.579,138.014 93.577,138.505 93.482 C 138.997 93.387,138.500 93.311,137.400 93.314 C 136.300 93.317,135.897 93.395,136.505 93.487 M153.500 93.482 C 153.995 93.578,154.805 93.578,155.300 93.482 C 155.795 93.387,155.390 93.309,154.400 93.309 C 153.410 93.309,153.005 93.387,153.500 93.482 M244.505 93.487 C 245.114 93.579,246.014 93.577,246.505 93.482 C 246.997 93.387,246.500 93.311,245.400 93.314 C 244.300 93.317,243.897 93.395,244.505 93.487 M261.705 93.487 C 262.314 93.579,263.214 93.577,263.705 93.482 C 264.197 93.387,263.700 93.311,262.600 93.314 C 261.500 93.317,261.097 93.395,261.705 93.487 M276.100 94.676 C 276.485 94.776,277.115 94.776,277.500 94.676 C 277.885 94.575,277.570 94.493,276.800 94.493 C 276.030 94.493,275.715 94.575,276.100 94.676 M250.300 109.498 C 252.335 109.571,255.665 109.571,257.700 109.498 C 259.735 109.425,258.070 109.366,254.000 109.366 C 249.930 109.366,248.265 109.425,250.300 109.498 M232.200 111.200 C 231.181 111.638,232.232 111.638,233.600 111.200 C 234.404 110.943,234.443 110.877,233.800 110.868 C 233.360 110.862,232.640 111.011,232.200 111.200 M209.396 201.800 C 209.396 245.800,209.443 263.741,209.500 241.668 C 209.557 219.596,209.557 183.596,209.500 161.668 C 209.443 139.741,209.396 157.800,209.396 201.800 M331.200 205.880 C 331.090 250.584,331.135 287.025,331.301 286.859 C 331.467 286.693,331.557 250.117,331.501 205.579 L 331.400 124.600 331.200 205.880 M252.707 273.090 C 253.426 273.179,254.506 273.177,255.107 273.086 C 255.708 272.995,255.120 272.922,253.800 272.924 C 252.480 272.926,251.988 273.001,252.707 273.090 M243.905 273.483 C 244.402 273.579,245.122 273.575,245.505 273.475 C 245.887 273.375,245.480 273.296,244.600 273.301 C 243.720 273.305,243.407 273.387,243.905 273.483 M262.705 273.483 C 263.202 273.579,263.922 273.575,264.305 273.475 C 264.687 273.375,264.280 273.296,263.400 273.301 C 262.520 273.305,262.207 273.387,262.705 273.483 M139.107 289.490 C 139.826 289.579,140.906 289.577,141.507 289.486 C 142.108 289.395,141.520 289.322,140.200 289.324 C 138.880 289.326,138.388 289.401,139.107 289.490 M150.900 289.487 C 151.505 289.578,152.495 289.578,153.100 289.487 C 153.705 289.395,153.210 289.320,152.000 289.320 C 150.790 289.320,150.295 289.395,150.900 289.487 M246.900 289.487 C 247.505 289.578,248.495 289.578,249.100 289.487 C 249.705 289.395,249.210 289.320,248.000 289.320 C 246.790 289.320,246.295 289.395,246.900 289.487 M258.300 289.489 C 259.015 289.578,260.185 289.578,260.900 289.489 C 261.615 289.401,261.030 289.328,259.600 289.328 C 258.170 289.328,257.585 289.401,258.300 289.489 " stroke="none" fill="#949cac" fill-rule="evenodd"></path><path id="path6" d="M137.500 93.089 C 138.215 93.178,139.385 93.178,140.100 93.089 C 140.815 93.001,140.230 92.928,138.800 92.928 C 137.370 92.928,136.785 93.001,137.500 93.089 M151.907 93.090 C 152.626 93.179,153.706 93.177,154.307 93.086 C 154.908 92.995,154.320 92.922,153.000 92.924 C 151.680 92.926,151.188 93.001,151.907 93.090 M245.507 93.090 C 246.226 93.179,247.306 93.177,247.907 93.086 C 248.508 92.995,247.920 92.922,246.600 92.924 C 245.280 92.926,244.788 93.001,245.507 93.090 M259.900 93.089 C 260.615 93.178,261.785 93.178,262.500 93.089 C 263.215 93.001,262.630 92.928,261.200 92.928 C 259.770 92.928,259.185 93.001,259.900 93.089 M132.705 93.483 C 133.202 93.579,133.922 93.575,134.305 93.475 C 134.687 93.375,134.280 93.296,133.400 93.301 C 132.520 93.305,132.207 93.387,132.705 93.483 M157.300 93.476 C 157.685 93.576,158.315 93.576,158.700 93.476 C 159.085 93.375,158.770 93.293,158.000 93.293 C 157.230 93.293,156.915 93.375,157.300 93.476 M241.300 93.476 C 241.685 93.576,242.315 93.576,242.700 93.476 C 243.085 93.375,242.770 93.293,242.000 93.293 C 241.230 93.293,240.915 93.375,241.300 93.476 M265.905 93.483 C 266.402 93.579,267.122 93.575,267.505 93.475 C 267.887 93.375,267.480 93.296,266.600 93.301 C 265.720 93.305,265.407 93.387,265.905 93.483 M271.700 110.676 C 272.085 110.776,272.715 110.776,273.100 110.676 C 273.485 110.575,273.170 110.493,272.400 110.493 C 271.630 110.493,271.315 110.575,271.700 110.676 M330.600 205.600 C 330.600 250.218,330.735 286.640,330.900 286.538 C 331.292 286.296,331.292 124.904,330.900 124.662 C 330.735 124.560,330.600 160.982,330.600 205.600 M244.505 273.087 C 245.114 273.179,246.014 273.177,246.505 273.082 C 246.997 272.987,246.500 272.911,245.400 272.914 C 244.300 272.917,243.897 272.995,244.505 273.087 M261.300 273.087 C 261.905 273.178,262.895 273.178,263.500 273.087 C 264.105 272.995,263.610 272.920,262.400 272.920 C 261.190 272.920,260.695 272.995,261.300 273.087 M266.500 273.476 C 266.885 273.576,267.515 273.576,267.900 273.476 C 268.285 273.375,267.970 273.293,267.200 273.293 C 266.430 273.293,266.115 273.375,266.500 273.476 M126.500 290.676 C 126.885 290.776,127.515 290.776,127.900 290.676 C 128.285 290.575,127.970 290.493,127.200 290.493 C 126.430 290.493,126.115 290.575,126.500 290.676 " stroke="none" fill="#687486" fill-rule="evenodd"></path></g></svg>